<?xml version="1.0" encoding="UTF-8"?>
<svg version="1.1" xmlns="http://www.w3.org/2000/svg" width="500" height="500">
<path d="M0 0 C4.10116078 0.56646646 7.58342734 1.48262879 11.38427734 3.11376953 C12.4133017 3.55157745 13.44232605 3.98938538 14.50253296 4.44046021 C15.60255646 4.91643646 16.70257996 5.39241272 17.8359375 5.8828125 C18.98808746 6.37530487 20.14023743 6.86779724 21.32730103 7.37521362 C24.39085449 8.6862656 27.45182293 10.00302575 30.51171875 11.3225708 C33.56944203 12.63939103 36.6306313 13.94810464 39.69140625 15.2578125 C42.07296313 16.27853744 44.45447422 17.2993692 46.8359375 18.3203125 C47.99285095 18.81541321 49.1497644 19.31051392 50.34173584 19.82061768 C55.28109546 21.94106284 60.207448 24.07506491 65.08300781 26.33886719 C65.81927399 26.67683319 66.55554016 27.01479919 67.31411743 27.36300659 C69.17704169 28.22402622 71.03161958 29.10304543 72.88525391 29.98388672 C78.9970337 31.97771236 83.9123405 29.39498426 89.51953125 26.89453125 C90.2435614 26.57836349 90.96759155 26.26219574 91.71356201 25.93644714 C93.27182977 25.25520932 94.82878985 24.57097388 96.384552 23.8840332 C98.83610367 22.80208293 101.29129586 21.72885116 103.74780273 20.65820312 C107.13939815 19.17992152 110.53005028 17.69951533 113.91992188 16.21728516 C121.06864852 13.09445812 128.22720419 9.99507067 135.39974976 6.92733765 C136.83622434 6.31141033 138.27148105 5.69263454 139.70547485 5.07095337 C141.69797731 4.20724884 143.69411837 3.35256784 145.69140625 2.5 C146.81748291 2.0153125 147.94355957 1.530625 149.10375977 1.03125 C152 0 152 0 156 0 C156 0.99 156 1.98 156 3 C155.67 3.33 155.34 3.66 155 4 C156.98 3.67 158.96 3.34 161 3 C161 4.32 161 5.64 161 7 C157.7 8.32 154.4 9.64 151 11 C152.52625 10.505 154.0525 10.01 155.625 9.5 C159.54515336 8.31393087 162.87182809 7.67409169 167 8 C167 8.99 167 9.98 167 11 C158.585 13.475 158.585 13.475 150 16 C155.04141846 15.01784586 155.04141846 15.01784586 160.08081055 14.02539062 C163.77404772 13.31933744 167.2191906 12.82102677 171 13 C170.67 14.32 170.34 15.64 170 17 C162.08 18.65 154.16 20.3 146 22 C153.34460117 21.01629224 153.34460117 21.01629224 160.68823242 20.02539062 C161.60967041 19.90357422 162.5311084 19.78175781 163.48046875 19.65625 C164.41785889 19.53056641 165.35524902 19.40488281 166.32104492 19.27539062 C168.90317808 19.00995308 171.40650989 18.95063936 174 19 C173.67 20.32 173.34 21.64 173 23 C163.76 24.32 154.52 25.64 145 27 C147.495625 26.835 149.99125 26.67 152.5625 26.5 C160.71977783 25.99136412 168.82838127 25.89294823 177 26 C177 26.99 177 27.98 177 29 C173.93769179 29.31447432 170.87517183 29.62660243 167.8125 29.9375 C166.96751953 30.02451172 166.12253906 30.11152344 165.25195312 30.20117188 C158.17020297 30.91730391 151.10327043 31.45359458 144 32 C160.335 32.495 160.335 32.495 177 33 C177 33.99 177 34.98 177 36 C111.66 36 46.32 36 -21 36 C-20.67 34.68 -20.34 33.36 -20 32 C-9.11 31.505 -9.11 31.505 2 31 C-5.59 30.34 -13.18 29.68 -21 29 C-21 28.01 -21 27.02 -21 26 C-9.95471804 25.86620789 0.98080785 26.23629361 12 27 C11.16227051 26.88406494 10.32454102 26.76812988 9.46142578 26.64868164 C6.3562081 26.21724569 3.25145104 25.78266868 0.14697266 25.34594727 C-1.19725185 25.15750913 -2.5416531 24.9703274 -3.88623047 24.78442383 C-5.81784229 24.51713437 -7.74877676 24.24496417 -9.6796875 23.97265625 C-10.84226074 23.81031494 -12.00483398 23.64797363 -13.20263672 23.48071289 C-16 23 -16 23 -18 22 C-18 21.01 -18 20.02 -18 19 C-8.24416608 19.57121986 1.33144919 20.60523707 11 22 C10.31897217 21.85377197 9.63794434 21.70754395 8.9362793 21.55688477 C5.85297596 20.89382858 2.77023471 20.22819465 -0.3125 19.5625 C-1.38435547 19.33240234 -2.45621094 19.10230469 -3.56054688 18.86523438 C-4.58857422 18.64287109 -5.61660156 18.42050781 -6.67578125 18.19140625 C-7.62364502 17.98717041 -8.57150879 17.78293457 -9.5480957 17.57250977 C-12 17 -12 17 -15 16 C-15 15.01 -15 14.02 -15 13 C-9.30948637 13.5381371 -3.65134116 14.1400133 2 15 C-2.29 13.68 -6.58 12.36 -11 11 C-11 10.01 -11 9.02 -11 8 C-4.8424661 8.5864318 0.98262715 9.56729218 7 11 C3.04 9.68 -0.92 8.36 -5 7 C-5 5.68 -5 4.36 -5 3 C-2.03 3.495 -2.03 3.495 1 4 C0.67 3.67 0.34 3.34 0 3 C0 2.01 0 1.02 0 0 Z M9 17 C13 18 13 18 13 18 Z M143 17 C147 18 147 18 147 18 Z " fill="#7B92DD" transform="translate(172,223)"/>
<path d="M0 0 C0.75023437 0.72123047 0.75023437 0.72123047 1.515625 1.45703125 C2.32 2.22015625 3.124375 2.98328125 3.953125 3.76953125 C5.55975628 6.53293706 5.82369687 8.00704783 6.11328125 11.125 C6.19199463 11.93606201 6.27070801 12.74712402 6.35180664 13.58276367 C6.43289673 14.51052612 6.43289673 14.51052612 6.515625 15.45703125 C5.80768799 15.84858398 5.09975098 16.24013672 4.37036133 16.64355469 C1.63741539 18.15604525 -1.09460867 19.67018912 -3.82635498 21.18484497 C-5.67053988 22.20629176 -7.5161318 23.2251626 -9.36181641 24.24389648 C-15.21671391 27.48247297 -21.03712534 30.75561619 -26.77734375 34.1953125 C-27.72520752 34.75831055 -28.67307129 35.32130859 -29.6496582 35.90136719 C-31.42424761 36.96110037 -33.19017941 38.03550039 -34.94604492 39.12597656 C-35.73986572 39.59745117 -36.53368652 40.06892578 -37.3515625 40.5546875 C-38.03331543 40.97242432 -38.71506836 41.39016113 -39.41748047 41.82055664 C-42.37419309 42.73103973 -43.76647829 41.82057908 -46.484375 40.45703125 C-47.22292725 40.08666748 -47.96147949 39.71630371 -48.72241211 39.3347168 C-49.4778833 38.92519775 -50.23335449 38.51567871 -51.01171875 38.09375 C-51.87643799 37.62525635 -52.74115723 37.1567627 -53.63208008 36.67407227 C-58.59349227 33.9539141 -63.54365879 31.21460429 -68.484375 28.45703125 C-69.52819336 27.87791992 -70.57201172 27.29880859 -71.64746094 26.70214844 C-74.70875123 24.99403029 -77.75453401 23.26113393 -80.796875 21.51953125 C-81.75134521 20.9886792 -82.70581543 20.45782715 -83.68920898 19.91088867 C-84.56649658 19.40146729 -85.44378418 18.8920459 -86.34765625 18.3671875 C-87.12407471 17.92511963 -87.90049316 17.48305176 -88.70043945 17.02758789 C-91.05326951 14.95618297 -91.26134333 13.54165757 -91.484375 10.45703125 C-89.68331772 3.97322505 -86.08366559 0.11709795 -80.484375 -3.54296875 C-73.48171454 -6.8897636 -66.14994897 -9.31074564 -58.484375 -10.54296875 C-57.46537109 -10.70925781 -57.46537109 -10.70925781 -56.42578125 -10.87890625 C-38.61681893 -13.29700389 -14.36835992 -12.33804819 0 0 Z " fill="#7F94E1" transform="translate(292.484375,208.54296875)"/>
<path d="M0 0 C15.51 0 31.02 0 47 0 C47 20.02144161 47 20.02144161 39.70703125 27.52734375 C33.36361103 32.99981383 27.64225678 33.44280875 19.3671875 33.43359375 C12.54230358 32.55475139 7.0985952 28.68197269 2.734375 23.49609375 C-2.00324382 16.03934864 0 9.31094098 0 0 Z " fill="#7F94E1" transform="translate(227,162)"/>
<path d="M0 0 C1.226548 0.00303635 1.226548 0.00303635 2.47787476 0.00613403 C3.76315567 0.00350555 3.76315567 0.00350555 5.07440186 0.00082397 C7.9211527 -0.00359561 10.76784197 -0.00065618 13.61459351 0.00271606 C15.58375053 0.00204306 17.55290747 0.00107306 19.52206421 -0.00018311 C23.65480335 -0.00166022 27.78752093 0.00049492 31.92025757 0.00515747 C37.23033871 0.01085476 42.54036932 0.00757583 47.85044861 0.00158501 C51.91834904 -0.00202023 55.9862374 -0.00088219 60.05413818 0.0017128 C62.01265468 0.00238217 63.97117226 0.00155329 65.9296875 -0.00076675 C68.6619255 -0.00329267 71.39408047 0.00054645 74.12631226 0.00613403 C74.94401093 0.0041098 75.76170959 0.00208557 76.60418701 0 C82.18783105 0.02126611 82.18783105 0.02126611 83.30209351 1.13552856 C83.34273183 2.80169972 83.34481451 4.46940951 83.30209351 6.13552856 C80.66209351 6.13552856 78.02209351 6.13552856 75.30209351 6.13552856 C75.63209351 17.02552856 75.96209351 27.91552856 76.30209351 39.13552856 C74.32209351 39.13552856 72.34209351 39.13552856 70.30209351 39.13552856 C70.63209351 28.24552856 70.96209351 17.35552856 71.30209351 6.13552856 C68.33209351 6.13552856 65.36209351 6.13552856 62.30209351 6.13552856 C62.30209351 10.09552856 62.30209351 14.05552856 62.30209351 18.13552856 C46.79209351 18.13552856 31.28209351 18.13552856 15.30209351 18.13552856 C14.97209351 14.50552856 14.64209351 10.87552856 14.30209351 7.13552856 C7.37209351 6.80552856 0.44209351 6.47552856 -6.69790649 6.13552856 C-6.69790649 -0.7428178 -6.25981731 0.02384141 0 0 Z " fill="#7E93E2" transform="translate(211.69790649414063,140.86447143554688)"/>
<path d="M0 0 C0.76749492 0.00291284 1.53498984 0.00582568 2.32574219 0.00882679 C3.13513998 0.00797237 3.94453777 0.00711794 4.77846277 0.00623763 C7.51164669 0.00458035 10.24477027 0.01010822 12.97794861 0.01555592 C14.9288102 0.01583776 16.87967191 0.01568011 18.83053344 0.01511341 C24.14436356 0.01482533 29.45817131 0.02072377 34.7719962 0.02768737 C40.31870881 0.03391915 45.86542188 0.03452457 51.41213745 0.03571278 C61.92356821 0.03882662 72.43498863 0.04704071 82.94641483 0.05706227 C94.90993332 0.06822178 106.87345229 0.07373345 118.83697468 0.0787577 C143.45420285 0.08922328 168.07142183 0.10682373 192.68864197 0.12908131 C193.07082964 1.78522788 193.40259298 3.45365155 193.68864197 5.12908131 C191.62890398 7.1888193 187.22853057 6.28323542 184.39274353 6.28679615 C183.52280761 6.29187687 182.6528717 6.29695759 181.75657409 6.30219227 C179.86042815 6.31292128 177.96426934 6.32153145 176.06810516 6.3283115 C173.06734279 6.34006552 170.06672664 6.35951018 167.06602234 6.38143116 C158.53174972 6.44315796 149.99749023 6.49707812 141.46305603 6.5304485 C136.24872296 6.55138966 131.03465304 6.58669294 125.82047027 6.6312061 C123.83179838 6.64537564 121.84307989 6.65409068 119.85436004 6.65726048 C117.06999957 6.66216699 114.28633725 6.6853197 111.50211853 6.7125774 C110.68009948 6.70957127 109.85808044 6.70656513 109.01115173 6.70346791 C104.34571817 6.77132349 101.58643239 7.31767389 97.68864197 10.12908131 C95.62614197 10.52751881 95.62614197 10.52751881 93.68864197 10.50408131 C92.72957947 10.51568287 92.72957947 10.51568287 91.75114197 10.52751881 C89.68864197 10.12908131 89.68864197 10.12908131 87.61156982 8.63120228 C83.62445369 6.58218463 80.28032734 6.6890047 75.85929626 6.69670826 C74.98074478 6.68651661 74.1021933 6.67632496 73.19701904 6.66582447 C70.30223463 6.63570633 67.4077812 6.62643029 64.51286072 6.61736256 C62.50217347 6.60051501 60.49149676 6.58236467 58.48083252 6.56296498 C53.19550119 6.51546722 47.91021256 6.4856563 42.62473816 6.45952564 C37.22863597 6.42971909 31.83268084 6.38318905 26.43668884 6.33806568 C15.85408348 6.25203505 5.27144785 6.18468859 -5.31135803 6.12908131 C-5.69354571 4.47293474 -6.02530905 2.80451107 -6.31135803 1.12908131 C-4.5721692 -0.61010752 -2.31784498 0.00667185 0 0 Z " fill="#7B8BC5" transform="translate(156.31135803461075,260.8709186911583)"/>
<path d="M0 0 C0 0.99 0 1.98 0 3 C-0.33 3.33 -0.66 3.66 -1 4 C0.98 3.67 2.96 3.34 5 3 C5 4.32 5 5.64 5 7 C1.7 8.32 -1.6 9.64 -5 11 C-2.710625 10.2575 -2.710625 10.2575 -0.375 9.5 C3.54515336 8.31393087 6.87182809 7.67409169 11 8 C11 8.99 11 9.98 11 11 C5.39 12.65 -0.22 14.3 -6 16 C-0.95858154 15.01784586 -0.95858154 15.01784586 4.08081055 14.02539062 C7.77404772 13.31933744 11.2191906 12.82102677 15 13 C14.67 14.32 14.34 15.64 14 17 C6.08 18.65 -1.84 20.3 -10 22 C-2.65539883 21.01629224 -2.65539883 21.01629224 4.68823242 20.02539062 C5.60967041 19.90357422 6.5311084 19.78175781 7.48046875 19.65625 C8.41785889 19.53056641 9.35524902 19.40488281 10.32104492 19.27539062 C12.90317808 19.00995308 15.40650989 18.95063936 18 19 C17.67 20.32 17.34 21.64 17 23 C7.76 24.32 -1.48 25.64 -11 27 C-8.504375 26.835 -6.00875 26.67 -3.4375 26.5 C4.71977783 25.99136412 12.82838127 25.89294823 21 26 C21 26.99 21 27.98 21 29 C17.93769179 29.31447432 14.87517183 29.62660243 11.8125 29.9375 C10.96751953 30.02451172 10.12253906 30.11152344 9.25195312 30.20117188 C2.17020297 30.91730391 -4.89672957 31.45359458 -12 32 C4.335 32.495 4.335 32.495 21 33 C21 33.99 21 34.98 21 36 C-16.45176103 36.20638953 -16.45176103 36.20638953 -35 35 C-34.01 34.34 -33.02 33.68 -32 33 C-31.54781326 29.12128967 -31.54781326 29.12128967 -33.5 27.375 C-33.995 26.92125 -34.49 26.4675 -35 26 C-35 25.34 -35 24.68 -35 24 C-34.34 24 -33.68 24 -33 24 C-32.67 23.01 -32.34 22.02 -32 21 C-32 21.66 -32 22.32 -32 23 C-31.34 23 -30.68 23 -30 23 C-30.33 22.01 -30.66 21.02 -31 20 C-30.01 19.34 -29.02 18.68 -28 18 C-26.86649466 15.98330173 -26.86649466 15.98330173 -26 14 C-25.67 13.67 -25.34 13.34 -25 13 C-26.32 12.67 -27.64 12.34 -29 12 C-29.33 12.66 -29.66 13.32 -30 14 C-30.66 13.34 -31.32 12.68 -32 12 C-28.08962062 10.2816876 -24.17521786 8.57300401 -20.25683594 6.87304688 C-18.92496453 6.2936342 -17.59421978 5.71162444 -16.26464844 5.12695312 C-14.3512266 4.28607716 -12.433922 3.45468306 -10.515625 2.625 C-9.36352539 2.12226563 -8.21142578 1.61953125 -7.02441406 1.1015625 C-4 0 -4 0 0 0 Z M-13 17 C-9 18 -9 18 -9 18 Z " fill="#6F88D7" transform="translate(328,223)"/>
<path d="M0 0 C0.33 0.99 0.66 1.98 1 3 C0.67 3.66 0.34 4.32 0 5 C-0.928125 4.95875 -1.85625 4.9175 -2.8125 4.875 C-6.15809719 4.72863661 -6.15809719 4.72863661 -9 7 C-8.67 8.65 -8.34 10.3 -8 12 C-4.846632 12.70074844 -2.27275026 13 1 13 C1.34933594 12.14535156 1.69867188 11.29070312 2.05859375 10.41015625 C2.51363281 9.30542969 2.96867187 8.20070313 3.4375 7.0625 C3.88996094 5.96035156 4.34242188 4.85820312 4.80859375 3.72265625 C6 1 6 1 7 0 C8.65 0 10.3 0 12 0 C13.98 4.62 15.96 9.24 18 14 C17.505 11.03 17.505 11.03 17 8 C17.66 8 18.32 8 19 8 C19 5.36 19 2.72 19 0 C23.50172909 -0.35307679 26.92625304 -0.55924321 31 1.5625 C33.64067441 4.78082193 34 6.85931078 34 11 C32.63571607 13.92346557 31.27249091 15.72750909 29 18 C26.25514407 18.14507695 23.61519457 18.18652423 20.875 18.125 C20.12089844 18.11597656 19.36679687 18.10695313 18.58984375 18.09765625 C16.72642746 18.0740687 14.86317407 18.03819719 13 18 C12.67 17.34 12.34 16.68 12 16 C8.97065509 15.34227572 8.97065509 15.34227572 6 15 C5.67 15.99 5.34 16.98 5 18 C2.9399629 18.25034126 0.87672534 18.47443346 -1.1875 18.6875 C-2.91033203 18.87892578 -2.91033203 18.87892578 -4.66796875 19.07421875 C-8.44784531 18.99002455 -10.04194705 18.29603755 -13 16 C-15.4486325 12.32705125 -15.83183438 9.26731035 -15 5 C-10.35154444 -0.9047949 -7.15105297 -1.21432975 0 0 Z M24 4 C24 7.3 24 10.6 24 14 C25.32 13.34 26.64 12.68 28 12 C28 10.02 28 8.04 28 6 C26.68 5.34 25.36 4.68 24 4 Z M9 8 C8.67 8.66 8.34 9.32 8 10 C8.66 10 9.32 10 10 10 C9.67 9.34 9.34 8.68 9 8 Z " fill="#7C90DC" transform="translate(318,281)"/>
<path d="M0 0 C3.63 0 7.26 0 11 0 C11 1.32 11 2.64 11 4 C9.02 4 7.04 4 5 4 C5 4.99 5 5.98 5 7 C6.65 7 8.3 7 10 7 C10.33 8.32 10.66 9.64 11 11 C7.25 12.125 7.25 12.125 5 11 C5 11.99 5 12.98 5 14 C7.31 14 9.62 14 12 14 C11.98839844 13.24074219 11.97679687 12.48148437 11.96484375 11.69921875 C11.95582031 10.70535156 11.94679688 9.71148437 11.9375 8.6875 C11.92589844 7.70136719 11.91429687 6.71523438 11.90234375 5.69921875 C12 3 12 3 13 0 C14.65 0 16.3 0 18 0 C18.99 1.98 19.98 3.96 21 6 C22.95216435 4.04783565 23.84826645 2.46800047 25 0 C26.65 0 28.3 0 30 0 C30.33808686 2.06172613 30.67027361 4.1244203 31 6.1875 C31.185625 7.33605469 31.37125 8.48460937 31.5625 9.66796875 C31.93489477 12.50415393 32.08596021 15.14719564 32 18 C30.35 18 28.7 18 27 18 C26.67 16.68 26.34 15.36 26 14 C25.01 15.32 24.02 16.64 23 18 C21.0625 17.625 21.0625 17.625 19 17 C18.67 16.34 18.34 15.68 18 15 C17.01 16.485 17.01 16.485 16 18 C10.45185355 19.35872974 5.57536422 18.77197351 0 18 C0 12.06 0 6.12 0 0 Z " fill="#7990DC" transform="translate(353,281)"/>
<path d="M0 0 C6.27 0 12.54 0 19 0 C19.33 4.29 19.66 8.58 20 13 C20.99 13 21.98 13 23 13 C23.33 8.71 23.66 4.42 24 0 C30.27 0 36.54 0 43 0 C43 1.32 43 2.64 43 4 C41.68 4 40.36 4 39 4 C39 8.62 39 13.24 39 18 C37.35 18 35.7 18 34 18 C33.67 13.71 33.34 9.42 33 5 C31.68 4.67 30.36 4.34 29 4 C29.02320313 4.75925781 29.04640625 5.51851563 29.0703125 6.30078125 C29.09738281 7.79158203 29.09738281 7.79158203 29.125 9.3125 C29.14820313 10.29863281 29.17140625 11.28476562 29.1953125 12.30078125 C29 15 29 15 27 18 C20.24752475 19.41584158 20.24752475 19.41584158 16.5625 18.1875 C15 17 15 17 14 15 C13.92966231 13.12620395 13.9156978 11.24998898 13.9375 9.375 C13.94652344 8.37210937 13.95554688 7.36921875 13.96484375 6.3359375 C13.97644531 5.56507813 13.98804688 4.79421875 14 4 C12.68 4 11.36 4 10 4 C10 8.62 10 13.24 10 18 C9.01 18.33 8.02 18.66 7 19 C6.34 18.67 5.68 18.34 5 18 C4.5859375 15.05859375 4.5859375 15.05859375 4.375 11.4375 C4.30023438 10.23996094 4.22546875 9.04242188 4.1484375 7.80859375 C4.09945312 6.88175781 4.05046875 5.95492188 4 5 C2.68 4.67 1.36 4.34 0 4 C0 2.68 0 1.36 0 0 Z " fill="#8091D3" transform="translate(160,281)"/>
<path d="M0 0 C1.226548 0.00303635 1.226548 0.00303635 2.47787476 0.00613403 C3.76315567 0.00350555 3.76315567 0.00350555 5.07440186 0.00082397 C7.9211527 -0.00359561 10.76784197 -0.00065618 13.61459351 0.00271606 C15.58375053 0.00204306 17.55290747 0.00107306 19.52206421 -0.00018311 C23.65480335 -0.00166022 27.78752093 0.00049492 31.92025757 0.00515747 C37.23033871 0.01085476 42.54036932 0.00757583 47.85044861 0.00158501 C51.91834904 -0.00202023 55.9862374 -0.00088219 60.05413818 0.0017128 C62.01265468 0.00238217 63.97117226 0.00155329 65.9296875 -0.00076675 C68.6619255 -0.00329267 71.39408047 0.00054645 74.12631226 0.00613403 C74.94401093 0.0041098 75.76170959 0.00208557 76.60418701 0 C82.18783105 0.02126611 82.18783105 0.02126611 83.30209351 1.13552856 C83.34273183 2.80169972 83.34481451 4.46940951 83.30209351 6.13552856 C80.66209351 6.13552856 78.02209351 6.13552856 75.30209351 6.13552856 C75.63209351 17.02552856 75.96209351 27.91552856 76.30209351 39.13552856 C74.32209351 39.13552856 72.34209351 39.13552856 70.30209351 39.13552856 C70.63209351 28.24552856 70.96209351 17.35552856 71.30209351 6.13552856 C68.00209351 6.13552856 64.70209351 6.13552856 61.30209351 6.13552856 C61.96209351 5.80552856 62.62209351 5.47552856 63.30209351 5.13552856 C63.63209351 4.47552856 63.96209351 3.81552856 64.30209351 3.13552856 C64.96209351 3.13552856 65.62209351 3.13552856 66.30209351 3.13552856 C66.30209351 3.79552856 66.30209351 4.45552856 66.30209351 5.13552856 C67.62209351 5.13552856 68.94209351 5.13552856 70.30209351 5.13552856 C70.63209351 4.47552856 70.96209351 3.81552856 71.30209351 3.13552856 C72.29209351 4.62052856 72.29209351 4.62052856 73.30209351 6.13552856 C73.63209351 5.80552856 73.96209351 5.47552856 74.30209351 5.13552856 C76.30167714 5.09472074 78.30254605 5.092985 80.30209351 5.13552856 C80.30209351 4.14552856 80.30209351 3.15552856 80.30209351 2.13552856 C52.91209351 2.46552856 25.52209351 2.79552856 -2.69790649 3.13552856 C-3.02790649 3.79552856 -3.35790649 4.45552856 -3.69790649 5.13552856 C-1.05790649 5.13552856 1.58209351 5.13552856 4.30209351 5.13552856 C4.30209351 5.46552856 4.30209351 5.79552856 4.30209351 6.13552856 C0.67209351 6.13552856 -2.95790649 6.13552856 -6.69790649 6.13552856 C-6.69790649 -0.7428178 -6.25981731 0.02384141 0 0 Z " fill="#7889C7" transform="translate(211.69790649414063,140.86447143554688)"/>
<path d="M0 0 C0 0.66 0 1.32 0 2 C-3.19700882 3.59850441 -6.65705554 3.10228457 -10.16577148 3.06591797 C-11.0098053 3.06124512 -11.85383911 3.05657227 -12.72344971 3.05175781 C-14.55958262 3.04124117 -16.39570416 3.02857392 -18.23180962 3.01403427 C-21.13542246 2.99207916 -24.03897069 2.97795686 -26.94264221 2.96633911 C-35.19956334 2.93267622 -43.45637717 2.89103528 -51.71313477 2.82861328 C-56.75989066 2.79102053 -61.80653577 2.76795916 -66.85341072 2.75430679 C-68.77960359 2.74623674 -70.70578129 2.73260579 -72.63189507 2.71337509 C-75.32301464 2.68697564 -78.01360127 2.67901014 -80.70483398 2.67529297 C-81.90421349 2.65675766 -81.90421349 2.65675766 -83.12782288 2.6378479 C-87.30298123 2.57041516 -87.30298123 2.57041516 -90.85414124 4.49758911 C-91.23227463 4.9933847 -91.61040802 5.4891803 -92 6 C-94.62890625 6.36328125 -94.62890625 6.36328125 -97.5625 6.3125 C-98.53316406 6.30863281 -99.50382813 6.30476563 -100.50390625 6.30078125 C-103 6 -103 6 -105 4 C-105.625 1.875 -105.625 1.875 -106 0 C-92.47468652 -0.15362641 -78.94932554 -0.30180826 -65.42387581 -0.4429636 C-59.14404144 -0.50867442 -52.86423939 -0.57628841 -46.58447266 -0.64819336 C-40.52858411 -0.7174658 -34.47266173 -0.78181546 -28.4166832 -0.84269524 C-26.10171471 -0.86684344 -23.78676429 -0.89279087 -21.47183609 -0.92053413 C-18.2392281 -0.95897342 -15.00661603 -0.99111914 -11.77392578 -1.02172852 C-10.80863953 -1.03467453 -9.84335327 -1.04762054 -8.84881592 -1.06095886 C-7.53208389 -1.0715181 -7.53208389 -1.0715181 -6.18875122 -1.08229065 C-5.42366304 -1.09058679 -4.65857487 -1.09888292 -3.8703022 -1.10743046 C-2 -1 -2 -1 0 0 Z " fill="#7E93E2" transform="translate(348,263)"/>
<path d="M0 0 C10.110338 -0.0232584 20.22066955 -0.04098352 30.33102894 -0.05181217 C35.02660384 -0.05701162 39.72216031 -0.0640554 44.41772461 -0.07543945 C48.95647549 -0.08637339 53.49520874 -0.09229892 58.03397179 -0.09487724 C59.75814783 -0.09671267 61.48232301 -0.10029648 63.20649147 -0.10573006 C72.19171176 -0.13289796 81.0639572 -0.0926433 90 1 C89.67 1.99 89.34 2.98 89 4 C78.28177283 4.02318642 67.56355165 4.04094723 56.84530449 4.05181217 C51.8682148 4.0570272 46.8911423 4.06409981 41.9140625 4.07543945 C37.10949663 4.08631734 32.30494726 4.09228724 27.50037003 4.09487724 C25.66879135 4.09672265 23.83721357 4.10032625 22.00564194 4.10573006 C19.43717253 4.11300551 16.86877105 4.11398819 14.30029297 4.11352539 C13.16848351 4.1189183 13.16848351 4.1189183 12.0138092 4.12442017 C7.90287703 4.11642276 4.03298047 3.80116455 0 3 C0 2.01 0 1.02 0 0 Z " fill="#7E92DE" transform="translate(151,262)"/>
<path d="M0 0 C8.3984375 -0.1953125 8.3984375 -0.1953125 11 0 C13 2 13 2 13.125 5.375 C13.08375 6.57125 13.0425 7.7675 13 9 C12.63019987 13.04622502 12.63019987 13.04622502 15 16 C15.33 10.72 15.66 5.44 16 0 C17.65 0 19.3 0 21 0 C21 5.94 21 11.88 21 18 C19.081875 18.0825 17.16375 18.165 15.1875 18.25 C13.56908203 18.31960938 13.56908203 18.31960938 11.91796875 18.390625 C9 18 9 18 7.11328125 15.984375 C6.74589844 15.32953125 6.37851563 14.6746875 6 14 C5.67 15.32 5.34 16.64 5 18 C3.35 18 1.7 18 0 18 C0 12.06 0 6.12 0 0 Z M5 4 C5 4.99 5 5.98 5 7 C5.99 7 6.98 7 8 7 C7.67 6.01 7.34 5.02 7 4 C6.34 4 5.68 4 5 4 Z " fill="#7F92DD" transform="translate(222,281)"/>
<path d="M0 0 C2.32421875 -0.21875 2.32421875 -0.21875 5 0 C6.58203125 1.53125 6.58203125 1.53125 7.8125 3.5 C8.23144531 4.1496875 8.65039062 4.799375 9.08203125 5.46875 C9.38496094 5.9740625 9.68789062 6.479375 10 7 C10.33 4.69 10.66 2.38 11 0 C12.65 0 14.3 0 16 0 C16 5.94 16 11.88 16 18 C14.02 18 12.04 18 10 18 C7.625 15 7.625 15 6 12 C5.67 13.98 5.34 15.96 5 18 C3.35 18 1.7 18 0 18 C-1.04167441 13.90274731 -0.94409525 10.38504776 -0.5625 6.1875 C-0.46066406 5.02605469 -0.35882813 3.86460937 -0.25390625 2.66796875 C-0.17011719 1.78753906 -0.08632812 0.90710938 0 0 Z " fill="#7B8DD1" transform="translate(245,281)"/>
<path d="M0 0 C7.54385572 0.55109675 14.7557699 1.88895347 22.125 3.5625 C23.176875 3.79646484 24.22875 4.03042969 25.3125 4.27148438 C27.87620435 4.84249125 30.43860496 5.41873819 33 6 C33 9.20395416 32.25664978 11.09399739 31 14 C0.49855908 10.74927954 0.49855908 10.74927954 -3 9 C-3 8.01 -3 7.02 -3 6 C6.75583392 6.57121986 16.33144919 7.60523707 26 9 C25.31897217 8.85377197 24.63794434 8.70754395 23.9362793 8.55688477 C20.85297596 7.89382858 17.77023471 7.22819465 14.6875 6.5625 C13.61564453 6.33240234 12.54378906 6.10230469 11.43945312 5.86523438 C10.41142578 5.64287109 9.38339844 5.42050781 8.32421875 5.19140625 C7.37635498 4.98717041 6.42849121 4.78293457 5.4519043 4.57250977 C3 4 3 4 0 3 C0 2.01 0 1.02 0 0 Z " fill="#7189D2" transform="translate(157,236)"/>
<path d="M0 0 C2.65302128 2.17683797 3.74745097 3.78776468 4.44921875 7.15625 C4.69430538 10.42407171 4.73032513 12.91701787 2.859375 15.69140625 C0.43068866 17.93474547 -1.7895659 18.95615956 -5 19.625 C-8.96629231 18.7986891 -11.73506642 17.35861726 -14 14 C-15.10185889 9.38387904 -14.63286936 6.04750791 -12.1875 2 C-8.21792372 -1.62932688 -5.03011796 -1.23546757 0 0 Z M-7.625 5.1875 C-9.45422179 7.59874691 -9.37942388 9.04049371 -9 12 C-8.34 12.66 -7.68 13.32 -7 14 C-4.39719432 13.67958603 -4.39719432 13.67958603 -2 13 C-1.23283149 10.14921909 -1.23283149 10.14921909 -1 7 C-2.18895236 5.05967596 -2.18895236 5.05967596 -4 4 C-6.06631217 3.8033278 -6.06631217 3.8033278 -7.625 5.1875 Z " fill="#7E8FCE" transform="translate(217,281)"/>
<path d="M0 0 C1.4375 2.0625 1.4375 2.0625 2 4 C-0.57213134 5.61949011 -1.67669159 6.04408751 -4.75 5.625 C-5.4925 5.41875 -6.235 5.2125 -7 5 C-7.33 7.31 -7.66 9.62 -8 12 C-7.34 12 -6.68 12 -6 12 C-6.33 11.34 -6.66 10.68 -7 10 C-6.67 9.34 -6.34 8.68 -6 8 C-3.03 8 -0.06 8 3 8 C3.35820896 14.32835821 3.35820896 14.32835821 2 16.875 C-1.23301377 18.69357025 -4.34907797 19.30940017 -8 19 C-12.36959695 16.73717301 -12.36959695 16.73717301 -14 14 C-14.72730302 10.53132406 -14.69794107 7.47211018 -14 4 C-10.22973962 -1.33036813 -6.08027985 -1.43715706 0 0 Z " fill="#7B8ED5" transform="translate(276,281)"/>
<path d="M0 0 C9.02912621 -0.60194175 9.02912621 -0.60194175 13.125 1.9375 C15.62850316 6.02655516 16.08457505 9.32058345 15 14 C12.46590525 16.98128794 10.69569519 17.81542781 6.9375 18.8125 C4 19 4 19 0 18 C0 12.06 0 6.12 0 0 Z M5 4 C5 7.3 5 10.6 5 14 C6.32 13.67 7.64 13.34 9 13 C9.76716851 10.14921909 9.76716851 10.14921909 10 7 C8.81104764 5.05967596 8.81104764 5.05967596 7 4 C6.34 4 5.68 4 5 4 Z " fill="#7F91DA" transform="translate(118,281)"/>
<path d="M0 0 C1.98 0 3.96 0 6 0 C7.0063655 2.43504509 8.00526413 4.87270864 9 7.3125 C9.42925781 8.34793945 9.42925781 8.34793945 9.8671875 9.40429688 C11.08910744 12.41545674 12 14.71886984 12 18 C10.35 18 8.7 18 7 18 C6.67 17.34 6.34 16.68 6 16 C4.02 16 2.04 16 0 16 C-0.33 16.66 -0.66 17.32 -1 18 C-2.98 18 -4.96 18 -7 18 C-4.69 12.06 -2.38 6.12 0 0 Z M2 8 C2 8.66 2 9.32 2 10 C2.66 9.67 3.32 9.34 4 9 C3.34 8.67 2.68 8.34 2 8 Z " fill="#7C91DA" transform="translate(291,281)"/>
<path d="M0 0 C0.33 1.32 0.66 2.64 1 4 C-3.75 5.125 -3.75 5.125 -6 4 C-6 4.66 -6 5.32 -6 6 C-4.576875 6.433125 -4.576875 6.433125 -3.125 6.875 C0 8 0 8 2 10 C1.8125 13.5 1.8125 13.5 1 17 C-2.35327639 19.23551759 -2.90743657 19.17283528 -6.6875 18.625 C-7.49574219 18.51414062 -8.30398437 18.40328125 -9.13671875 18.2890625 C-9.75160156 18.19367188 -10.36648437 18.09828125 -11 18 C-12.125 14.25 -12.125 14.25 -11 12 C-8.69 12.66 -6.38 13.32 -4 14 C-4 13.34 -4 12.68 -4 12 C-5.175625 11.566875 -5.175625 11.566875 -6.375 11.125 C-9 10 -9 10 -11 8 C-10.875 4.5 -10.875 4.5 -10 1 C-6.84174782 -1.80733527 -3.89669554 -0.88561262 0 0 Z " fill="#8394DD" transform="translate(146,281)"/>
<path d="M0 0 C5.53846154 -0.36923077 5.53846154 -0.36923077 7.875 1.5 C8.24625 1.995 8.6175 2.49 9 3 C9.66 2.01 10.32 1.02 11 0 C14.625 -0.1875 14.625 -0.1875 18 0 C17.18957164 1.48030272 16.37659652 2.95921142 15.5625 4.4375 C15.11003906 5.26121094 14.65757812 6.08492188 14.19140625 6.93359375 C13 9 13 9 12 10 C11.76924918 11.34747084 11.58846937 12.70377565 11.4375 14.0625 C11.293125 15.361875 11.14875 16.66125 11 18 C9.35 18 7.7 18 6 18 C5.98582031 17.43152344 5.97164063 16.86304688 5.95703125 16.27734375 C5.56772256 9.97475164 3.90802868 6.91008731 0 2 C0 1.34 0 0.68 0 0 Z " fill="#8393D3" transform="translate(384,281)"/>
<path d="M0 0 C5.7693614 0.59585208 10.61661536 2.76987597 15.875 5.0625 C16.75414062 5.43955078 17.63328125 5.81660156 18.5390625 6.20507812 C20.69531564 7.13086072 22.84876979 8.06261911 25 9 C24.67 11.31 24.34 13.62 24 16 C24.66 16.33 25.32 16.66 26 17 C25.01 17.33 24.02 17.66 23 18 C22.34 17.34 21.68 16.68 21 16 C20.34 15.67 19.68 15.34 19 15 C18.3125 13.0625 18.3125 13.0625 18 11 C18.33 10.34 18.66 9.68 19 9 C18.01 9.33 17.02 9.66 16 10 C14.19067383 9.47094727 14.19067383 9.47094727 12.20703125 8.56640625 C11.49482422 8.24736328 10.78261719 7.92832031 10.04882812 7.59960938 C9.31083984 7.25736328 8.57285156 6.91511719 7.8125 6.5625 C7.06291016 6.22412109 6.31332031 5.88574219 5.54101562 5.53710938 C3.69007302 4.7000589 1.84450334 3.85114596 0 3 C0 2.01 0 1.02 0 0 Z " fill="#7288D0" transform="translate(172,223)"/>
<path d="M0 0 C0.66 0.33 1.32 0.66 2 1 C2 4.3674681 1.68568426 6.99299978 1 10.25 C0.814375 11.14203125 0.62875 12.0340625 0.4375 12.953125 C0.293125 13.62859375 0.14875 14.3040625 0 15 C-4.455 15.495 -4.455 15.495 -9 16 C-10.87184371 12.25631258 -11.23999767 11.1599209 -11.125 7.25 C-11.10695312 6.45078125 -11.08890625 5.6515625 -11.0703125 4.828125 C-11.04710937 4.22484375 -11.02390625 3.6215625 -11 3 C-9.68 3.33 -8.36 3.66 -7 4 C-6.67 6.31 -6.34 8.62 -6 11 C-5.01 11 -4.02 11 -3 11 C-2.95101562 10.37351562 -2.90203125 9.74703125 -2.8515625 9.1015625 C-2.77679688 8.28429687 -2.70203125 7.46703125 -2.625 6.625 C-2.52058594 5.40683594 -2.52058594 5.40683594 -2.4140625 4.1640625 C-2 2 -2 2 0 0 Z " fill="#7E92E3" transform="translate(186,283)"/>
<path d="M0 0 C2.35302007 2.35302007 2.39392208 3.27435295 2.75 6.5 C2.89695313 7.69109375 2.89695313 7.69109375 3.046875 8.90625 C3 11 3 11 1 13 C0.01 12.34 -0.98 11.68 -2 11 C-2.1875 7.875 -2.1875 7.875 -2 5 C-4.64 5.33 -7.28 5.66 -10 6 C-10 7.98 -10 9.96 -10 12 C-10.99 12 -11.98 12 -13 12 C-12.90266164 9.07984926 -12.80823301 6.768066 -12 4 C-8.17658308 0.4433331 -5.19137618 -0.70791493 0 0 Z " fill="#7E92DB" transform="translate(217,281)"/>
<path d="M0 0 C-0.33 1.32 -0.66 2.64 -1 4 C-4.37276197 4.53606515 -7.74841744 5.0510996 -11.125 5.5625 C-12.07632812 5.71396484 -13.02765625 5.86542969 -14.0078125 6.02148438 C-23.22098066 7.39706157 -23.22098066 7.39706157 -28 6 C-28.66 5.34 -29.32 4.68 -30 4 C-25.9385397 3.32689407 -21.87567904 2.66264518 -17.8125 2 C-16.08676758 1.71382812 -16.08676758 1.71382812 -14.32617188 1.421875 C-12.65844727 1.15117187 -12.65844727 1.15117187 -10.95703125 0.875 C-9.42526245 0.62363281 -9.42526245 0.62363281 -7.86254883 0.3671875 C-5.20154628 0.02585293 -2.67857932 -0.06884702 0 0 Z " fill="#6E86CB" transform="translate(346,242)"/>
<path d="M0 0 C6.2524605 0.3410433 11.99928275 1.67206833 18 3.375 C18.76626709 3.58406982 19.53253418 3.79313965 20.32202148 4.00854492 C22.24638144 4.57392408 24.12896328 5.27747912 26 6 C26.33 6.99 26.66 7.98 27 9 C23.36545309 10.21151564 22.07878256 9.65868046 18.45703125 8.56640625 C17.38388672 8.24736328 16.31074219 7.92832031 15.20507812 7.59960938 C14.08552734 7.25736328 12.96597656 6.91511719 11.8125 6.5625 C10.68134766 6.22412109 9.55019531 5.88574219 8.38476562 5.53710938 C5.58743231 4.69908969 2.792762 3.85310671 0 3 C0 2.01 0 1.02 0 0 Z " fill="#6F88D2" transform="translate(161,231)"/>
<path d="M0 0 C-6.625 0.125 -6.625 0.125 -10 -1 C-14.05731621 -1.20494975 -18.11488524 -1.18579975 -22.17700195 -1.18530273 C-24.16296521 -1.18747319 -26.14888894 -1.20593958 -28.13476562 -1.22460938 C-34.82502175 -1.23480276 -40.58356353 -0.85677099 -47 1 C-47.66 0.67 -48.32 0.34 -49 0 C-49 0.66 -49 1.32 -49 2 C-53.17737474 3.59138085 -56.53160785 4.21278058 -61 4 C-46.52160381 -5.65226413 -15.40173706 -8.94052054 0 0 Z " fill="#818FCD" transform="translate(275,201)"/>
<path d="M0 0 C1.65 0 3.3 0 5 0 C5 5.94 5 11.88 5 18 C4.01 18.33 3.02 18.66 2 19 C1.34 18.67 0.68 18.34 0 18 C0 12.06 0 6.12 0 0 Z " fill="#8595D0" transform="translate(149,281)"/>
<path d="M0 0 C3.39581516 -0.0291544 6.79159786 -0.04685068 10.1875 -0.0625 C11.14720703 -0.07087891 12.10691406 -0.07925781 13.09570312 -0.08789062 C14.02705078 -0.09111328 14.95839844 -0.09433594 15.91796875 -0.09765625 C17.19837036 -0.10551147 17.19837036 -0.10551147 18.50463867 -0.11352539 C21.09782197 0.00445037 23.4641927 0.46129457 26 1 C28.6068127 1.21881019 31.20220189 1.41012853 33.8125 1.5625 C34.85180664 1.62727539 34.85180664 1.62727539 35.91210938 1.69335938 C37.60788686 1.79861453 39.30392052 1.89972863 41 2 C41 2.33 41 2.66 41 3 C27.8 3 14.6 3 1 3 C0.67 2.01 0.34 1.02 0 0 Z " fill="#788FE0" transform="translate(153,256)"/>
<path d="M0 0 C1.313702 0.6433848 2.62592898 1.28978215 3.9375 1.9375 C4.66839844 2.29714844 5.39929688 2.65679687 6.15234375 3.02734375 C8 4 8 4 9 5 C8.75 8.4375 8.75 8.4375 8 12 C4.64672361 14.23551759 4.09256343 14.17283528 0.3125 13.625 C-0.49574219 13.51414062 -1.30398437 13.40328125 -2.13671875 13.2890625 C-2.75160156 13.19367188 -3.36648437 13.09828125 -4 13 C-5.125 9.25 -5.125 9.25 -4 7 C-1.64828869 7.59861742 0.6859378 8.26924352 3 9 C3.33 9.66 3.66 10.32 4 11 C4.66 11 5.32 11 6 11 C6.33 9.35 6.66 7.7 7 6 C3.535 4.02 3.535 4.02 0 2 C0 1.34 0 0.68 0 0 Z " fill="#7B8ED2" transform="translate(139,286)"/>
<path d="M0 0 C0.33 0.66 0.66 1.32 1 2 C1.99 1.67 2.98 1.34 4 1 C4.99 2.98 5.98 4.96 7 7 C7.99 6.34 8.98 5.68 10 5 C10.33 6.65 10.66 8.3 11 10 C9.35 10 7.7 10 6 10 C5.67 9.34 5.34 8.68 5 8 C3.02 8 1.04 8 -1 8 C-1.33 8.66 -1.66 9.32 -2 10 C-3.98 10 -5.96 10 -8 10 C-7.34 8.35 -6.68 6.7 -6 5 C-4.02 5 -2.04 5 0 5 C0 3.35 0 1.7 0 0 Z " fill="#758BD0" transform="translate(292,289)"/>
<path d="M0 0 C0.66 1.32 1.32 2.64 2 4 C1.67 4.33 1.34 4.66 1 5 C0.76924918 6.34747084 0.58846937 7.70377565 0.4375 9.0625 C0.293125 10.361875 0.14875 11.66125 0 13 C-1.65 13 -3.3 13 -5 13 C-5 9.04 -5 5.08 -5 1 C-3.35 0.67 -1.7 0.34 0 0 Z " fill="#7996E4" transform="translate(395,286)"/>
<path d="M0 0 C5.05255964 0.63156995 9.29593201 2.13459373 14 4 C13.67 4.99 13.34 5.98 13 7 C14.98 7 16.96 7 19 7 C19 7.99 19 8.98 19 10 C12.14381674 8.07443364 5.56747868 5.7527517 -1 3 C-0.67 2.01 -0.34 1.02 0 0 Z " fill="#7088D0" transform="translate(167,226)"/>
<path d="M0 0 C0.66 0 1.32 0 2 0 C1 3 1 3 -1.0625 4.5 C-1.701875 4.995 -2.34125 5.49 -3 6 C-3 6.99 -3 7.98 -3 9 C-5.97 10.32 -8.94 11.64 -12 13 C-12.33 11.68 -12.66 10.36 -13 9 C-12.195625 8.38125 -11.39125 7.7625 -10.5625 7.125 C-7.96125481 5.25835959 -7.96125481 5.25835959 -7 3 C-4.67843403 2.59270772 -2.3431213 2.25561323 0 2 C0 1.34 0 0.68 0 0 Z " fill="#6990E0" transform="translate(318,227)"/>
<path d="M0 0 C0 0.99 0 1.98 0 3 C-5.75 6 -5.75 6 -8 6 C-8 5.34 -8 4.68 -8 4 C-8.66 4 -9.32 4 -10 4 C-10 4.66 -10 5.32 -10 6 C-12.31 6.33 -14.62 6.66 -17 7 C-17.33 7.99 -17.66 8.98 -18 10 C-21 11 -21 11 -23.1875 10.0625 C-23.785625 9.711875 -24.38375 9.36125 -25 9 C-21.58846447 7.48813041 -18.1700013 5.99260869 -14.75 4.5 C-13.78191406 4.07074219 -12.81382812 3.64148438 -11.81640625 3.19921875 C-10.88183594 2.79316406 -9.94726562 2.38710937 -8.984375 1.96875 C-7.69611816 1.40317383 -7.69611816 1.40317383 -6.38183594 0.82617188 C-4 0 -4 0 0 0 Z " fill="#7589CD" transform="translate(328,223)"/>
<path d="M0 0 C0.99 0.33 1.98 0.66 3 1 C3.268125 1.804375 3.53625 2.60875 3.8125 3.4375 C4.80353159 6.33026976 4.80353159 6.33026976 8.125 7.3125 C9.07375 7.539375 10.0225 7.76625 11 8 C11 6.02 11 4.04 11 2 C11.33 2 11.66 2 12 2 C12 4.31 12 6.62 12 9 C10.06372231 9.10807131 8.12572244 9.1856225 6.1875 9.25 C4.56908203 9.31960938 4.56908203 9.31960938 2.91796875 9.390625 C0 9 0 9 -1.88671875 7.171875 C-3 5 -3 5 -3 2 C-2.01 1.34 -1.02 0.68 0 0 Z " fill="#768ACF" transform="translate(231,290)"/>
<path d="M0 0 C2.24973447 -0.054138 4.49984383 -0.09285491 6.75 -0.125 C8.00296875 -0.14820313 9.2559375 -0.17140625 10.546875 -0.1953125 C13.72820492 -0.01537302 15.36521896 0.31001418 18 2 C18 2.66 18 3.32 18 4 C11.88909517 4.09945415 6.02596573 4.0712828 0 3 C0 2.01 0 1.02 0 0 Z " fill="#8296D4" transform="translate(151,249)"/>
<path d="M0 0 C2.475 0.99 2.475 0.99 5 2 C4.67 3.98 4.34 5.96 4 8 C4.66 8 5.32 8 6 8 C6 8.66 6 9.32 6 10 C6.66 10 7.32 10 8 10 C8 10.66 8 11.32 8 12 C6.35 12.33 4.7 12.66 3 13 C3 12.01 3 11.02 3 10 C2.01 10 1.02 10 0 10 C0 6.7 0 3.4 0 0 Z " fill="#7B9CE5" transform="translate(119,287)"/>
<path d="M0 0 C2.69122652 1.25173326 5.17607821 2.67139202 7.6875 4.25 C7.0275 6.23 6.3675 8.21 5.6875 10.25 C4.6975 9.92 3.7075 9.59 2.6875 9.25 C2.6875 7.93 2.6875 6.61 2.6875 5.25 C1.90375 4.981875 1.12 4.71375 0.3125 4.4375 C-2.3125 3.25 -2.3125 3.25 -4.3125 0.25 C-2.3125 -0.75 -2.3125 -0.75 0 0 Z " fill="#7E93E2" transform="translate(139.3125,287.75)"/>
<path d="M0 0 C6.49850211 0.51553879 12.66226532 1.46667709 19 3 C14.64940776 5.48042815 10.90311231 5.4403486 6 5 C2.4375 4 2.4375 4 0 3 C0 2.01 0 1.02 0 0 Z " fill="#7489CD" transform="translate(157,236)"/>
<path d="M0 0 C0 1.65 0 3.3 0 5 C-0.99 5.33 -1.98 5.66 -3 6 C-3.80212628 7.87387216 -3.80212628 7.87387216 -4.1875 10.0625 C-4.34605469 10.79597656 -4.50460937 11.52945312 -4.66796875 12.28515625 C-4.77753906 12.85105469 -4.88710938 13.41695313 -5 14 C-5.66 14 -6.32 14 -7 14 C-7.33 14.66 -7.66 15.32 -8 16 C-9.20460211 12.38619367 -8.69608056 11.45637968 -7.3125 8 C-6.97863281 7.13375 -6.64476562 6.2675 -6.30078125 5.375 C-5.01508366 3.02754014 -3.01965768 0 0 0 Z " fill="#7F93E3" transform="translate(329,282)"/>
<path d="M0 0 C1.32 0 2.64 0 4 0 C4.82421358 17.76638156 4.82421358 17.76638156 -0.60546875 23.77734375 C-1.29576172 24.38255859 -1.29576172 24.38255859 -2 25 C-2.33 23.35 -2.66 21.7 -3 20 C-2.01 19.34 -1.02 18.68 0 18 C1.15570704 14.53287889 1.32835293 11.4585044 1.5625 7.8125 C1.64628906 6.54019531 1.73007812 5.26789063 1.81640625 3.95703125 C1.87699219 2.98121094 1.93757813 2.00539062 2 1 C1.34 0.67 0.68 0.34 0 0 Z " fill="#7B8CCE" transform="translate(270,162)"/>
<path d="M0 0 C0.66 0.66 1.32 1.32 2 2 C0.68 5.3 -0.64 8.6 -2 12 C-1.01 12 -0.02 12 1 12 C0.67 12.99 0.34 13.98 0 15 C-2.31 15 -4.62 15 -7 15 C-7 14.01 -7 13.02 -7 12 C-7.61875 12.185625 -8.2375 12.37125 -8.875 12.5625 C-11 13 -11 13 -13 12 C-12.67 11.34 -12.34 10.68 -12 10 C-9.36 10 -6.72 10 -4 10 C-2.68 6.7 -1.36 3.4 0 0 Z " fill="#778AD0" transform="translate(323,284)"/>
<path d="M0 0 C1.875 0.25 1.875 0.25 4 1 C5.25 3.0625 5.25 3.0625 6 5 C5.01 6.485 5.01 6.485 4 8 C3.34 8 2.68 8 2 8 C1.01 8.33 0.02 8.66 -1 9 C-1.33 9.99 -1.66 10.98 -2 12 C-2.17835515 7.45194365 -1.99785435 4.1205746 0 0 Z " fill="#8192E3" transform="translate(246,282)"/>
<path d="M0 0 C0.99 0.33 1.98 0.66 3 1 C3 5.62 3 10.24 3 15 C1.68 15 0.36 15 -1 15 C-1.33 13.68 -1.66 12.36 -2 11 C-1.34 11 -0.68 11 0 11 C0 7.37 0 3.74 0 0 Z " fill="#7E92E2" transform="translate(257,282)"/>
<path d="M0 0 C1.32 0 2.64 0 4 0 C4.33 2.64 4.66 5.28 5 8 C3.68 7.34 2.36 6.68 1 6 C1 9.3 1 12.6 1 16 C1.99 16 2.98 16 4 16 C4 16.66 4 17.32 4 18 C2.68 18 1.36 18 0 18 C0 12.06 0 6.12 0 0 Z " fill="#798CD2" transform="translate(118,281)"/>
<path d="M0 0 C1.32 0.33 2.64 0.66 4 1 C1.69656607 3.53801278 -0.66128628 5.07139703 -3.66796875 6.69921875 C-4.56064453 7.18583984 -5.45332031 7.67246094 -6.37304688 8.17382812 C-7.30181641 8.67333984 -8.23058594 9.17285156 -9.1875 9.6875 C-10.12787109 10.19861328 -11.06824219 10.70972656 -12.03710938 11.23632812 C-14.35557327 12.49559531 -16.6765614 13.74994246 -19 15 C-19.33 14.34 -19.66 13.68 -20 13 C-18.68 12.67 -17.36 12.34 -16 12 C-16 11.34 -16 10.68 -16 10 C-13.71070947 8.82845707 -11.41881638 7.66261926 -9.125 6.5 C-8.47402344 6.16613281 -7.82304687 5.83226562 -7.15234375 5.48828125 C-2.2265625 3 -2.2265625 3 0 3 C0 2.01 0 1.02 0 0 Z " fill="#8190CA" transform="translate(282,229)"/>
<path d="M0 0 C3.63 0.33 7.26 0.66 11 1 C11 2.98 11 4.96 11 7 C11.99 6.67 12.98 6.34 14 6 C14 6.66 14 7.32 14 8 C12.02 8.33 10.04 8.66 8 9 C6.5393715 6.35261084 6 5.10551666 6 2 C4.02 2 2.04 2 0 2 C0 1.34 0 0.68 0 0 Z " fill="#5E93DE" transform="translate(180,231)"/>
<path d="M0 0 C0 0.99 0 1.98 0 3 C-0.66 3.66 -1.32 4.32 -2 5 C-2.6425235 7.06874034 -2.6425235 7.06874034 -3 9 C-2.34 9 -1.68 9 -1 9 C-1.33 10.65 -1.66 12.3 -2 14 C-1.34 14.33 -0.68 14.66 0 15 C0 15.66 0 16.32 0 17 C-2.4375 16.3125 -2.4375 16.3125 -5 15 C-6.57771927 11.5487391 -5.99291067 9.97944094 -4.75 6.375 C-3.32591643 3.62855312 -2.35924074 1.90986155 0 0 Z " fill="#808ECC" transform="translate(207,209)"/>
<path d="M0 0 C4.95 0 9.9 0 15 0 C15 0.99 15 1.98 15 3 C9.94997778 4.03590199 5.12583611 4.10251672 0 4 C0 3.67 0 3.34 0 3 C1.65 2.67 3.3 2.34 5 2 C3.35 1.67 1.7 1.34 0 1 C0 0.67 0 0.34 0 0 Z " fill="#748BD3" transform="translate(334,249)"/>
<path d="M0 0 C0.33 0.99 0.66 1.98 1 3 C0.67 3.66 0.34 4.32 0 5 C-1.32 4.67 -2.64 4.34 -4 4 C-3.34 3.67 -2.68 3.34 -2 3 C-2 2.34 -2 1.68 -2 1 C-7.28031812 1.27067214 -7.28031812 1.27067214 -11.3125 4.4375 C-11.869375 5.283125 -12.42625 6.12875 -13 7 C-13.66 7.66 -14.32 8.32 -15 9 C-14.51053485 3.49351702 -14.51053485 3.49351702 -12.125 1.1875 C-7.72853392 -1.26934869 -4.86142071 -0.82552427 0 0 Z " fill="#7A8CC9" transform="translate(318,281)"/>
<path d="M0 0 C1.65 0 3.3 0 5 0 C8 5.75 8 5.75 8 8 C6.0625 7.6875 6.0625 7.6875 4 7 C3.67 6.01 3.34 5.02 3 4 C2.34 3.67 1.68 3.34 1 3 C0.67 4.98 0.34 6.96 0 9 C-0.33 9 -0.66 9 -1 9 C-0.67 6.03 -0.34 3.06 0 0 Z " fill="#7D8DD0" transform="translate(366,281)"/>
<path d="M0 0 C1.79133978 -0.05391993 3.58313899 -0.09275571 5.375 -0.125 C6.37273437 -0.14820313 7.37046875 -0.17140625 8.3984375 -0.1953125 C11 0 11 0 13 2 C13.125 5.625 13.125 5.625 13 9 C12.67 7.68 12.34 6.36 12 5 C11.34 5 10.68 5 10 5 C9.67 5.99 9.34 6.98 9 8 C8.01 7.67 7.02 7.34 6 7 C6.66 7 7.32 7 8 7 C8.33 5.35 8.66 3.7 9 2 C6.36 1.67 3.72 1.34 1 1 C0.67 2.32 0.34 3.64 0 5 C0 3.35 0 1.7 0 0 Z " fill="#7D8ECC" transform="translate(222,281)"/>
<path d="M0 0 C1.85625 0.2784375 1.85625 0.2784375 3.75 0.5625 C6.76279577 0.94711223 9.10010827 1.0874594 12 0 C12 0.66 12 1.32 12 2 C11.01 2.33 10.02 2.66 9 3 C8.32517578 3.76763672 8.32517578 3.76763672 7.63671875 4.55078125 C5.35075792 6.5748659 3.81110341 6.3043287 0.8125 6.1875 C-0.53908203 6.14689453 -0.53908203 6.14689453 -1.91796875 6.10546875 C-2.60503906 6.07066406 -3.29210937 6.03585937 -4 6 C-1.66785852 4.79371992 0.49642139 3.8345262 3 3 C2.01 2.01 1.02 1.02 0 0 Z " fill="#778DD3" transform="translate(244,253)"/>
<path d="M0 0 C2.97 0.495 2.97 0.495 6 1 C5.67 2.98 5.34 4.96 5 7 C5.66 7.33 6.32 7.66 7 8 C6.01 8.33 5.02 8.66 4 9 C3.34 8.34 2.68 7.68 2 7 C1.34 6.67 0.68 6.34 0 6 C-0.6875 4.0625 -0.6875 4.0625 -1 2 C-0.67 1.34 -0.34 0.68 0 0 Z " fill="#6C88DB" transform="translate(191,232)"/>
<path d="M0 0 C0.33 0.99 0.66 1.98 1 3 C-2.3 3.33 -5.6 3.66 -9 4 C-9.33 5.65 -9.66 7.3 -10 9 C-10.66 8.67 -11.32 8.34 -12 8 C-11.68306247 5.06832781 -11.36774166 3.41017339 -9.375 1.1875 C-6.1686245 -0.41568775 -3.53249148 -0.20379759 0 0 Z " fill="#7D94E4" transform="translate(316,282)"/>
<path d="M0 0 C1.41750563 0.11509661 2.83401169 0.24253658 4.25 0.375 C5.03890625 0.44460937 5.8278125 0.51421875 6.640625 0.5859375 C9.085877 1.01507113 10.84836903 1.78600638 13 3 C12.01 3 11.02 3 10 3 C10 3.66 10 4.32 10 5 C6.7 4.34 3.4 3.68 0 3 C0 2.01 0 1.02 0 0 Z " fill="#6F8BCC" transform="translate(161,231)"/>
<path d="M0 0 C0.66 0 1.32 0 2 0 C4.56687367 3.8503105 3.83288724 5.58569763 3 10 C2.01 10 1.02 10 0 10 C-0.66 9.34 -1.32 8.68 -2 8 C-2 7.01 -2 6.02 -2 5 C-1.34 5 -0.68 5 0 5 C0 3.35 0 1.7 0 0 Z " fill="#8294E5" transform="translate(337,284)"/>
<path d="M0 0 C1.65 0 3.3 0 5 0 C5.66 2.31 6.32 4.62 7 7 C6.01 7.495 6.01 7.495 5 8 C4.67 8.99 4.34 9.98 4 11 C3.01 10.67 2.02 10.34 1 10 C1.33 9.67 1.66 9.34 2 9 C1.67 8.34 1.34 7.68 1 7 C1.66 6.67 2.32 6.34 3 6 C3 4.68 3 3.36 3 2 C1.68 2.33 0.36 2.66 -1 3 C-0.67 2.01 -0.34 1.02 0 0 Z " fill="#7A8BCD" transform="translate(325,281)"/>
<path d="M0 0 C0.66 0.66 1.32 1.32 2 2 C1.9765625 5.2578125 1.9765625 5.2578125 1.625 9.125 C1.51414063 10.40632813 1.40328125 11.68765625 1.2890625 13.0078125 C1.19367188 13.99523437 1.09828125 14.98265625 1 16 C0.34 16 -0.32 16 -1 16 C-2.0006709 10.03654233 -2.0662997 5.71271093 0 0 Z " fill="#8092E5" transform="translate(152,282)"/>
<path d="M0 0 C8.03501094 -0.63019694 8.03501094 -0.63019694 12.0625 2 C12.701875 2.66 13.34125 3.32 14 4 C13.67 4.66 13.34 5.32 13 6 C10.5 4.625 10.5 4.625 8 3 C8 2.34 8 1.68 8 1 C5.53199953 2.15173355 3.95216435 3.04783565 2 5 C2 4.34 2 3.68 2 3 C1.34 3 0.68 3 0 3 C0 2.01 0 1.02 0 0 Z " fill="#7C8FD0" transform="translate(337,281)"/>
<path d="M0 0 C3.09902323 3.09902323 2.9898579 5.39147385 3.0625 9.75 C3.041875 10.8225 3.02125 11.895 3 13 C2.01 13 1.02 13 0 13 C0 8.71 0 4.42 0 0 Z " fill="#7E93E1" transform="translate(239,285)"/>
<path d="M0 0 C0.99 1.32 1.98 2.64 3 4 C3.66 3.01 4.32 2.02 5 1 C5 3.64 5 6.28 5 9 C3.35 9 1.7 9 0 9 C0 6.03 0 3.06 0 0 Z " fill="#798CD1" transform="translate(390,290)"/>
<path d="M0 0 C1.65 0 3.3 0 5 0 C5.33 1.65 5.66 3.3 6 5 C5.34 4.67 4.68 4.34 4 4 C4 3.34 4 2.68 4 2 C0.88794071 3.98512949 0.88794071 3.98512949 -0.75 7.1875 C-0.8325 7.785625 -0.915 8.38375 -1 9 C-1.66 9 -2.32 9 -3 9 C-2.44271087 5.65626525 -1.64826111 2.96687001 0 0 Z " fill="#7D8DD0" transform="translate(378,281)"/>
<path d="M0 0 C4.92177803 0 9.18814083 0.01295197 14 1 C12 3 12 3 8.6875 3.1875 C5.65250325 3.03317813 2.94278081 2.71340141 0 2 C0 1.34 0 0.68 0 0 Z " fill="#7289DC" transform="translate(169,251)"/>
<path d="M0 0 C0.33 0 0.66 0 1 0 C1.33 3.63 1.66 7.26 2 11 C1.01 11 0.02 11 -1 11 C-2.25 3.375 -2.25 3.375 0 0 Z " fill="#7D94E4" transform="translate(196,286)"/>
<path d="M0 0 C4.29 0 8.58 0 13 0 C13 0.33 13 0.66 13 1 C11.35 1 9.7 1 8 1 C8 1.66 8 2.32 8 3 C5.36 3 2.72 3 0 3 C0 2.01 0 1.02 0 0 Z " fill="#7989C9" transform="translate(151,249)"/>
<path d="M0 0 C0.99 0.33 1.98 0.66 3 1 C3 3.31 3 5.62 3 8 C1.68 7.67 0.36 7.34 -1 7 C-1.04254356 5.00045254 -1.04080783 2.99958364 -1 1 C-0.67 0.67 -0.34 0.34 0 0 Z " fill="#7C93DF" transform="translate(284,171)"/>
<path d="M0 0 C0.99 0.33 1.98 0.66 3 1 C3.9765625 7.0546875 3.9765625 7.0546875 4 9 C3.34 9.66 2.68 10.32 2 11 C1.01 10.34 0.02 9.68 -1 9 C-0.835 8.2575 -0.67 7.515 -0.5 6.75 C0.11925696 3.80993422 0.11925696 3.80993422 0 0 Z " fill="#8597E5" transform="translate(216,283)"/>
<path d="M0 0 C2.4375 1.375 2.4375 1.375 3.25 4 C3.311875 4.78375 3.37375 5.5675 3.4375 6.375 C-2.3125 3.75 -2.3125 3.75 -4.5625 0.375 C-2.5625 -0.625 -2.5625 -0.625 0 0 Z " fill="#8E9DE2" transform="translate(139.5625,287.625)"/>
<path d="M0 0 C7.425 0.99 7.425 0.99 15 2 C13 4 13 4 9.1875 4.3125 C5.4025731 4.22976936 3.03482495 3.37095699 0 1 C0 0.67 0 0.34 0 0 Z " fill="#798BC8" transform="translate(241,267)"/>
<path d="M0 0 C1.65 0 3.3 0 5 0 C5 0.66 5 1.32 5 2 C5.99 2 6.98 2 8 2 C8 2.66 8 3.32 8 4 C8.66 4.33 9.32 4.66 10 5 C6.53058454 4.54177532 3.32604951 4.10868317 0 3 C0 2.01 0 1.02 0 0 Z " fill="#7E92CD" transform="translate(157,236)"/>
<path d="M0 0 C1.43931117 0.45261358 2.87638999 0.91232979 4.3125 1.375 C5.11300781 1.63023437 5.91351563 1.88546875 6.73828125 2.1484375 C9 3 9 3 12 5 C10.1875 5.625 10.1875 5.625 8 6 C7.01 5.34 6.02 4.68 5 4 C3.34450469 3.61500109 1.6777567 3.27206865 0 3 C0 2.01 0 1.02 0 0 Z " fill="#788DD0" transform="translate(197,233)"/>
<path d="M0 0 C0.66 0 1.32 0 2 0 C2 0.99 2 1.98 2 3 C3.60875 2.87625 3.60875 2.87625 5.25 2.75 C9 3 9 3 11.4375 5 C12.2109375 5.99 12.2109375 5.99 13 7 C11.35 7 9.7 7 8 7 C7.67 6.34 7.34 5.68 7 5 C4.67843403 4.59270772 2.3431213 4.25561323 0 4 C0 2.68 0 1.36 0 0 Z " fill="#7689CE" transform="translate(356,292)"/>
<path d="M0 0 C2.31 0 4.62 0 7 0 C6.67 1.32 6.34 2.64 6 4 C3.69 3.67 1.38 3.34 -1 3 C-0.67 2.01 -0.34 1.02 0 0 Z " fill="#6C91E1" transform="translate(357,296)"/>
<path d="M0 0 C0 1.65 0 3.3 0 5 C-1.65 5 -3.3 5 -5 5 C-5 3.68 -5 2.36 -5 1 C-3 0 -3 0 0 0 Z " fill="#788AD2" transform="translate(227,294)"/>
<path d="M0 0 C2.625 0.375 2.625 0.375 5 1 C5.33 2.65 5.66 4.3 6 6 C3.36 5.34 0.72 4.68 -2 4 C-2 2 -2 2 0 0 Z " fill="#8399E8" transform="translate(203,242)"/>
<path d="M0 0 C0.66 0.33 1.32 0.66 2 1 C0.20963542 1.9765625 -1.58072917 2.953125 -3.37109375 3.9296875 C-5.16618315 4.91410024 -5.16618315 4.91410024 -6 7 C-7.65 6.67 -9.3 6.34 -11 6 C-7.57874946 3.12614955 -4.16111563 1.54115394 0 0 Z " fill="#7F8ED1" transform="translate(291,237)"/>
<path d="M0 0 C2.64 0 5.28 0 8 0 C7.34 1.32 6.68 2.64 6 4 C3.69 3.34 1.38 2.68 -1 2 C-0.67 1.34 -0.34 0.68 0 0 Z " fill="#8698DD" transform="translate(270,290)"/>
<path d="M0 0 C0.33 0.99 0.66 1.98 1 3 C-2.96 2.67 -6.92 2.34 -11 2 C-11 1.67 -11 1.34 -11 1 C-7.27569643 0.30710631 -3.78916254 -0.11144596 0 0 Z " fill="#7F92D6" transform="translate(167,244)"/>
<path d="M0 0 C1.32031595 0.56542004 2.6311301 1.15306472 3.9375 1.75 C4.66839844 2.07484375 5.39929688 2.3996875 6.15234375 2.734375 C8 4 8 4 8.75390625 6.140625 C8.83511719 6.75421875 8.91632813 7.3678125 9 8 C5.56247993 6.4722133 2.81046312 4.49818944 0 2 C0 1.34 0 0.68 0 0 Z " fill="#808FCA" transform="translate(231,185)"/>
<path d="M0 0 C0 0.99 0 1.98 0 3 C-0.66 3 -1.32 3 -2 3 C-2.33 3.99 -2.66 4.98 -3 6 C-4.32 5.34 -5.64 4.68 -7 4 C-3.375 0 -3.375 0 0 0 Z " fill="#7E93DE" transform="translate(218,293)"/>
<path d="M0 0 C0.66 0.33 1.32 0.66 2 1 C2 1.66 2 2.32 2 3 C2.66 3.33 3.32 3.66 4 4 C3.360625 4.268125 2.72125 4.53625 2.0625 4.8125 C-0.33131686 5.88667752 -0.33131686 5.88667752 -1 9 C-1.125 2.25 -1.125 2.25 0 0 Z " fill="#6AB6ED" transform="translate(245,285)"/>
<path d="M0 0 C1.98 0 3.96 0 6 0 C5.01 0.33 4.02 0.66 3 1 C3.515625 1.94875 4.03125 2.8975 4.5625 3.875 C5.036875 4.90625 5.51125 5.9375 6 7 C5.67 7.66 5.34 8.32 5 9 C4.16094435 7.87926138 3.32892169 6.75325453 2.5 5.625 C2.0359375 4.99851562 1.571875 4.37203125 1.09375 3.7265625 C0 2 0 2 0 0 Z " fill="#7B8BC8" transform="translate(384,281)"/>
<path d="M0 0 C4.95 0 9.9 0 15 0 C15 0.99 15 1.98 15 3 C14.01 3 13.02 3 12 3 C12 2.34 12 1.68 12 1 C8.04 1 4.08 1 0 1 C0 0.67 0 0.34 0 0 Z " fill="#7385BB" transform="translate(334,249)"/>
<path d="M0 0 C2.64752004 2.57784846 4.94432065 4.91648098 7 8 C3.74456771 7.65120368 2.98126893 6.97866739 0.75 4.4375 C-0.11625 3.2309375 -0.11625 3.2309375 -1 2 C-0.67 1.34 -0.34 0.68 0 0 Z " fill="#7F93E6" transform="translate(263,290)"/>
<path d="M0 0 C0.33 0 0.66 0 1 0 C1.33 2.31 1.66 4.62 2 7 C0.68 7 -0.64 7 -2 7 C-1.125 1.125 -1.125 1.125 0 0 Z " fill="#7B9CE8" transform="translate(368,290)"/>
<path d="M0 0 C-0.804375 0.226875 -1.60875 0.45375 -2.4375 0.6875 C-3.283125 1.120625 -4.12875 1.55375 -5 2 C-5.89386164 4.54775306 -5.89386164 4.54775306 -6 7 C-6.66 7 -7.32 7 -8 7 C-7.75 4.125 -7.75 4.125 -7 1 C-4.1587258 -1.17831022 -3.46754708 -1.15584903 0 0 Z " fill="#7F8FCB" transform="translate(143,281)"/>
<path d="M0 0 C0.99 0 1.98 0 3 0 C3 0.66 3 1.32 3 2 C3.66 2 4.32 2 5 2 C5 2.66 5 3.32 5 4 C3.02 4.33 1.04 4.66 -1 5 C-1 4.34 -1 3.68 -1 3 C-1.66 2.67 -2.32 2.34 -3 2 C-2.01 2 -1.02 2 0 2 C0 1.34 0 0.68 0 0 Z " fill="#6D9FE6" transform="translate(291,286)"/>
<path d="M0 0 C-0.33 0.66 -0.66 1.32 -1 2 C-1.99 2.33 -2.98 2.66 -4 3 C-4.66 3.66 -5.32 4.32 -6 5 C-6 3.35 -6 1.7 -6 0 C-3.50907189 -1.24546405 -2.58919267 -0.7767578 0 0 Z " fill="#7092E5" transform="translate(375,290)"/>
<path d="M0 0 C1.98 0 3.96 0 6 0 C6 1.32 6 2.64 6 4 C3.03 3.505 3.03 3.505 0 3 C0 2.01 0 1.02 0 0 Z " fill="#7C8CC7" transform="translate(161,231)"/>
<path d="M0 0 C1.98 0 3.96 0 6 0 C6 0.99 6 1.98 6 3 C4.35 3.33 2.7 3.66 1 4 C0.67 2.68 0.34 1.36 0 0 Z " fill="#7084BF" transform="translate(333,231)"/>
<path d="M0 0 C-0.33 0.99 -0.66 1.98 -1 3 C-2.65 3.33 -4.3 3.66 -6 4 C-5.67 3.34 -5.34 2.68 -5 2 C-5.66 1.34 -6.32 0.68 -7 0 C-3.86650268 -1.04449911 -3.01031744 -0.93423645 0 0 Z " fill="#7182C3" transform="translate(334,227)"/>
<path d="M0 0 C0.33 0.99 0.66 1.98 1 3 C1.66 3.33 2.32 3.66 3 4 C0.69 4 -1.62 4 -4 4 C-4.33 3.01 -4.66 2.02 -5 1 C-3.35 0.67 -1.7 0.34 0 0 Z " fill="#6D8CC8" transform="translate(335,295)"/>
<path d="M0 0 C0.433125 0.474375 0.86625 0.94875 1.3125 1.4375 C3.02309613 3.23686957 3.02309613 3.23686957 6 4 C6 4.66 6 5.32 6 6 C4.35 6 2.7 6 1 6 C-0.0625 4.125 -0.0625 4.125 -1 2 C-0.67 1.34 -0.34 0.68 0 0 Z " fill="#778ACC" transform="translate(254,293)"/>
<path d="M0 0 C1.32 0.66 2.64 1.32 4 2 C4 2.99 4 3.98 4 5 C2.68 5 1.36 5 0 5 C-0.5625 3.0625 -0.5625 3.0625 -1 1 C-0.67 0.67 -0.34 0.34 0 0 Z " fill="#7D92E7" transform="translate(306,292)"/>
<path d="M0 0 C2.31 0 4.62 0 7 0 C7 0.99 7 1.98 7 3 C4.36 2.67 1.72 2.34 -1 2 C-0.67 1.34 -0.34 0.68 0 0 Z " fill="#7F9DE9" transform="translate(356,290)"/>
<path d="M0 0 C0.33 0 0.66 0 1 0 C1.04898438 0.61488281 1.09796875 1.22976563 1.1484375 1.86328125 C1.22320312 2.67152344 1.29796875 3.47976563 1.375 4.3125 C1.44460937 5.11300781 1.51421875 5.91351563 1.5859375 6.73828125 C1.89564426 9.27224441 1.89564426 9.27224441 4 12 C3.01 12 2.02 12 1 12 C-0.26237731 9.47524538 -0.09856404 7.68799534 -0.0625 4.875 C-0.05347656 3.96492188 -0.04445312 3.05484375 -0.03515625 2.1171875 C-0.02355469 1.41851562 -0.01195312 0.71984375 0 0 Z " fill="#939ED6" transform="translate(174,286)"/>
<path d="M0 0 C0.99 1.32 1.98 2.64 3 4 C1.625 6 1.625 6 0 8 C-0.66 8 -1.32 8 -2 8 C-2 7.01 -2 6.02 -2 5 C-1.34 5 -0.68 5 0 5 C0 3.35 0 1.7 0 0 Z " fill="#56AFE9" transform="translate(337,284)"/>
<path d="M0 0 C1.65 0 3.3 0 5 0 C5.33 0.99 5.66 1.98 6 3 C4.35 3.33 2.7 3.66 1 4 C0.67 2.68 0.34 1.36 0 0 Z " fill="#7498E8" transform="translate(246,246)"/>
<path d="M0 0 C3.1875 1.9375 3.1875 1.9375 6 4 C3.3333581 5.33332095 1.83319697 4.67102033 -1 4 C-1 3.34 -1 2.68 -1 2 C-1.66 1.67 -2.32 1.34 -3 1 C-2.01 0.67 -1.02 0.34 0 0 Z " fill="#869DEC" transform="translate(202,236)"/>
</svg>
