<?xml version="1.0" encoding="UTF-8"?>
<svg version="1.1" xmlns="http://www.w3.org/2000/svg" width="314" height="172">
<path d="M0 0 C103.62 0 207.24 0 314 0 C314 56.76 314 113.52 314 172 C210.38 172 106.76 172 0 172 C0 115.24 0 58.48 0 0 Z " fill="#FDFDFD" transform="translate(0,0)"/>
<path d="M0 0 C5.10833752 4.83071048 5.10833752 4.83071048 5.4453125 8.35546875 C5.38020833 10.34114583 5.31510417 12.32682292 5.25 14.3125 C4.63294189 14.6434668 4.01588379 14.97443359 3.38012695 15.31542969 C-8.89794129 21.91002655 -21.12624065 28.56083031 -33.1472168 35.61621094 C-33.959729 36.08833008 -34.77224121 36.56044922 -35.609375 37.046875 C-36.66850098 37.66900879 -36.66850098 37.66900879 -37.74902344 38.30371094 C-41.35919711 40.12377409 -41.35919711 40.12377409 -43.75 40.3125 C-46.59643555 39.1159668 -46.59643555 39.1159668 -49.88671875 37.26171875 C-50.4795314 36.93182953 -51.07234406 36.60194031 -51.68312073 36.26205444 C-53.60820682 35.18659665 -55.52279085 34.09380847 -57.4375 33 C-58.75113424 32.26075997 -60.06526346 31.52239885 -61.37988281 30.78491211 C-65.18087535 28.64642314 -68.96803739 26.48443583 -72.75 24.3125 C-73.74273926 23.74241211 -74.73547852 23.17232422 -75.75830078 22.58496094 C-89.28080104 14.78169896 -89.28080104 14.78169896 -90.75 13.3125 C-91.3047803 9.91447066 -91.33540674 7.4042622 -89.6796875 4.31640625 C-83.03038048 -4.25418295 -71.17490558 -9.32596891 -60.66674805 -11.02416992 C-40.66122763 -13.51962898 -16.10882854 -13.7244893 0 0 Z " fill="#192C5D" transform="translate(199.75,75.6875)"/>
<path d="M0 0 C7.20930266 2.26859605 14.06217132 5.07921585 20.98046875 8.11328125 C22.11092117 8.6053154 23.2413736 9.09734955 24.40608215 9.60429382 C28.00147212 11.17009138 31.59453904 12.74113785 35.1875 14.3125 C37.58122211 15.35648237 39.97510095 16.40010545 42.36914062 17.44335938 C43.5320462 17.95051483 44.69495178 18.45767029 45.89309692 18.98019409 C48.1826412 19.9774389 50.47305414 20.97269198 52.76437378 21.96585083 C57.39505063 23.97523051 62.01718916 25.98801278 66.58447266 28.13818359 C67.23047928 28.43597214 67.8764859 28.73376068 68.54206848 29.04057312 C70.13268662 29.77758248 71.71404555 30.53449493 73.29418945 31.29370117 C76.93270676 32.24346482 78.55451402 31.47392722 82 30 C82.64421402 29.73485092 83.28842804 29.46970184 83.9521637 29.19651794 C86.24109474 28.24946467 88.51529515 27.27194608 90.7890625 26.2890625 C91.6380159 25.92435852 92.4869693 25.55965454 93.36164856 25.18389893 C95.17758249 24.40342997 96.993045 23.62186336 98.80807495 22.83929443 C101.64055416 21.61829506 104.47449469 20.40074756 107.30883789 19.18408203 C115.15329939 15.81535665 122.99494316 12.44031058 130.82537842 9.03909302 C132.81895512 8.17344168 134.81337915 7.30977577 136.80810547 6.44677734 C139.17767583 5.42059048 141.54528768 4.38986593 143.91064453 3.35400391 C145.46887939 2.67990479 145.46887939 2.67990479 147.05859375 1.9921875 C148.39361938 1.40993408 148.39361938 1.40993408 149.75561523 0.81591797 C152 0 152 0 155 0 C154 3 154 3 152.41772461 3.9831543 C151.75264893 4.26070557 151.08757324 4.53825684 150.40234375 4.82421875 C149.68369141 5.13037109 148.96503906 5.43652344 148.22460938 5.75195312 C147.46986328 6.06068359 146.71511719 6.36941406 145.9375 6.6875 C144.79958008 7.16799805 144.79958008 7.16799805 143.63867188 7.65820312 C141.76317458 8.44850702 139.8820877 9.22552197 138 10 C142.85998287 8.59578364 147.66902865 7.17713016 152.375 5.3125 C156 4 156 4 160 4 C160 4.66 160 5.32 160 6 C159.10168457 6.32798584 158.20336914 6.65597168 157.27783203 6.99389648 C153.94894572 8.20966587 150.62062779 9.42698465 147.29248047 10.64477539 C145.85122924 11.17189217 144.40982367 11.69858712 142.96826172 12.22485352 C140.89770557 12.98082739 138.82770697 13.73831035 136.7578125 14.49609375 C136.11192169 14.73154404 135.46603088 14.96699432 134.80056763 15.20957947 C132.48190141 16.05967931 130.2108939 16.89455305 128 18 C128.64437012 17.80365967 129.28874023 17.60731934 129.95263672 17.4050293 C132.9266913 16.49896773 135.9008451 15.59323222 138.875 14.6875 C139.88820312 14.37876953 140.90140625 14.07003906 141.9453125 13.75195312 C143.97558543 13.13376105 146.00651155 12.51771012 148.03808594 11.90380859 C149.96710865 11.31518 151.89251558 10.71452513 153.81347656 10.10009766 C155.11623535 9.68896729 155.11623535 9.68896729 156.4453125 9.26953125 C157.20602051 9.02436768 157.96672852 8.7792041 158.75048828 8.52661133 C161.23199357 7.94569024 163.46010584 7.90902958 166 8 C165.67 8.99 165.34 9.98 165 11 C162.41137695 12.04321289 162.41137695 12.04321289 158.98828125 12.97265625 C157.75529297 13.31490234 156.52230469 13.65714844 155.25195312 14.00976562 C153.9389199 14.36111768 152.62576766 14.71202524 151.3125 15.0625 C150.01855496 15.41612976 148.72493036 15.77093425 147.43164062 16.12695312 C145.03468449 16.78633419 142.63614503 17.44000439 140.2355957 18.08618164 C137.12042877 18.96598771 134.06179955 19.95084381 131 21 C132.55895996 20.62862915 132.55895996 20.62862915 134.14941406 20.24975586 C138.0087595 19.33295083 141.87085209 18.42822162 145.73388672 17.52709961 C147.40490782 17.13553004 149.07516769 16.74069694 150.74462891 16.3425293 C153.14552864 15.77051244 155.54892835 15.21031843 157.953125 14.65234375 C158.69806213 14.47219223 159.44299927 14.29204071 160.21051025 14.10643005 C166.6233442 12.63931564 166.6233442 12.63931564 170 14 C167.62616035 16.80843194 165.7747483 17.54937105 162.203125 18.28125 C161.24277344 18.48363281 160.28242188 18.68601562 159.29296875 18.89453125 C158.28878906 19.09433594 157.28460938 19.29414062 156.25 19.5 C155.29222656 19.69980469 154.33445313 19.89960937 153.34765625 20.10546875 C150.23447296 20.75113556 147.11789987 21.37751211 144 22 C142.62954116 22.27465911 141.25909922 22.54940256 139.88867188 22.82421875 C136.25950304 23.55142941 132.62986383 24.27626559 129 25 C129.94206299 24.84853516 130.88412598 24.69707031 131.85473633 24.54101562 C135.40011801 23.97332965 138.94720565 23.41697533 142.49487305 22.86376953 C144.02074017 22.62427285 145.54614914 22.38183578 147.07104492 22.13623047 C155.76520739 20.73808816 164.15893406 19.56878692 173 20 C173 20.66 173 21.32 173 22 C167.61097592 22.83864989 162.22156269 23.67473834 156.83178711 24.50854492 C155.00160213 24.79203562 153.17152185 25.07620319 151.34155273 25.36108398 C148.69803244 25.77249039 146.05413431 26.18139087 143.41015625 26.58984375 C142.60353043 26.71592514 141.7969046 26.84200653 140.96583557 26.97190857 C135.65466586 27.78920938 130.34430452 28.43731875 125 29 C129.27094994 28.689081 133.54173666 28.37597092 137.8125 28.0625 C139.00810547 27.97548828 140.20371094 27.88847656 141.43554688 27.79882812 C146.95227085 27.3929656 152.46238758 26.96676827 157.96875 26.4375 C161.888362 26.07200563 165.74742504 25.89114618 169.6875 25.9375 C171.20923828 25.95103516 171.20923828 25.95103516 172.76171875 25.96484375 C173.50035156 25.97644531 174.23898438 25.98804687 175 26 C175 26.99 175 27.98 175 29 C170.10164578 29.75679157 165.26936457 30.23678527 160.31640625 30.53515625 C159.03451416 30.61386963 157.75262207 30.69258301 156.43188477 30.77368164 C154.82498779 30.8689917 153.21809082 30.96430176 151.5625 31.0625 C146.426875 31.371875 141.29125 31.68125 136 32 C155.305 32.495 155.305 32.495 175 33 C175.33 33.99 175.66 34.98 176 36 C110.99 36 45.98 36 -21 36 C-21 35.01 -21 34.02 -21 33 C1.77 32.505 1.77 32.505 25 32 C9.82 31.01 -5.36 30.02 -21 29 C-21 28.01 -21 27.02 -21 26 C-10.19337992 25.70211461 0.49130527 26.62449726 11.25 27.5 C13.07418458 27.64496187 14.89840318 27.78949638 16.72265625 27.93359375 C21.14884477 28.28414024 25.57453375 28.64045477 30 29 C29.44511902 28.92705215 28.89023804 28.85410431 28.31854248 28.77894592 C22.5432102 28.01922623 16.76831091 27.25627848 10.99365234 26.49145508 C8.83848835 26.20644656 6.68321533 25.92226122 4.52783203 25.63891602 C1.4297224 25.23149533 -1.66798305 24.82111569 -4.765625 24.41015625 C-5.72929993 24.28407486 -6.69297485 24.15799347 -7.68585205 24.02809143 C-8.58648376 23.90804245 -9.48711548 23.78799347 -10.41503906 23.66430664 C-11.20557678 23.5599379 -11.9961145 23.45556915 -12.81060791 23.34803772 C-14.91634052 23.01329897 -16.94130286 22.55086447 -19 22 C-18.67 21.01 -18.34 20.02 -18 19 C-1.5 21.31 15 23.62 32 26 C21.02262639 23.82810733 21.02262639 23.82810733 10.04394531 21.6628418 C1.6338734 19.99598662 -6.70952637 18.20120035 -15 16 C-15 15.01 -15 14.02 -15 13 C-0.57662936 15.63986027 13.72449389 18.6517562 28 22 C25.39150531 21.23744769 22.78288906 20.47531702 20.17407227 19.71386719 C17.97099003 19.07020785 15.76835375 18.42502014 13.56616211 17.77832031 C8.82998443 16.39075319 4.09707708 15.00652147 -0.67578125 13.75 C-1.91714844 13.42 -3.15851563 13.09 -4.4375 12.75 C-5.50871094 12.47671875 -6.57992187 12.2034375 -7.68359375 11.921875 C-8.44800781 11.61765625 -9.21242188 11.3134375 -10 11 C-10.33 10.01 -10.66 9.02 -11 8 C-6.73096242 8.63554093 -2.69993279 9.58930138 1.4375 10.8125 C8.92850314 12.99504414 16.45611334 15.00835604 24 17 C23.12674072 16.71278076 22.25348145 16.42556152 21.35375977 16.12963867 C18.12078982 15.06002799 14.89175378 13.97988099 11.66479492 12.89233398 C10.26648665 12.42352479 8.8667404 11.95898238 7.46557617 11.4987793 C5.45359738 10.83714096 3.44726198 10.16040998 1.44140625 9.48046875 C-0.37315063 8.87561646 -0.37315063 8.87561646 -2.22436523 8.25854492 C-3.14032471 7.8432251 -4.05628418 7.42790527 -5 7 C-5.33 6.01 -5.66 5.02 -6 4 C-0.33271074 4.59457616 4.60579436 6.09407078 9.9375 8.0625 C12.598125 9.031875 15.25875 10.00125 18 11 C9.09 7.04 9.09 7.04 0 3 C0 2.01 0 1.02 0 0 Z " fill="#293B68" transform="translate(80,89)"/>
<path d="M0 0 C15.18 0 30.36 0 46 0 C46 18.5049505 46 18.5049505 40.421875 24.7734375 C35.52148714 29.29857043 30.26308174 32.11763154 23.5 32.3125 C16.13936984 31.98868209 11.15505692 30.10481607 5.80078125 25.03125 C-1.04919813 17.30459213 0 10.74832225 0 0 Z " fill="#192C5D" transform="translate(134,29)"/>
<path d="M0 0 C0.76223973 0.00223072 1.52447947 0.00446144 2.30981737 0.00675976 C3.11372048 0.00519977 3.91762359 0.00363978 4.7458874 0.00203252 C7.46058007 -0.00198084 10.17521759 0.00121346 12.88991076 0.00434887 C14.82767558 0.00299497 16.76544014 0.0012151 18.70320421 -0.00096118 C23.98204293 -0.00553713 29.2608622 -0.00374522 34.53970128 -0.0005821 C40.05211399 0.00194104 45.56452497 -0.00039594 51.07693774 -0.00196826 C60.33702685 -0.00379025 69.59710801 -0.00138305 78.85719591 0.00337231 C89.57661408 0.00881338 100.29601322 0.00705351 111.01543093 0.00154591 C120.2026691 -0.00298631 129.38990153 -0.00363519 138.57714045 -0.00101542 C144.07131268 0.00054695 149.56547596 0.00074221 155.05964762 -0.00255191 C160.22481848 -0.00543214 165.38996473 -0.0034521 170.55513293 0.00234234 C172.45549834 0.00366919 174.35586581 0.0032771 176.25623041 0.00107968 C178.84134114 -0.0016348 181.42637196 0.00175303 184.01147753 0.00675976 C184.77148654 0.00452904 185.53149555 0.00229832 186.31453514 0 C191.49583936 0.01959345 191.49583936 0.01959345 193.72413927 1.13374341 C193.72413927 2.45374341 193.72413927 3.77374341 193.72413927 5.13374341 C190.46414727 6.76373941 186.86647729 6.29603964 183.28297716 6.30732739 C182.40968264 6.3140144 181.53638811 6.32070141 180.63663012 6.32759106 C178.73668167 6.34165928 176.83671615 6.35354766 174.93674189 6.36353886 C171.93225308 6.37991643 168.92789107 6.40315223 165.92346483 6.4284364 C157.37995478 6.49930682 148.83639317 6.55939143 140.29274279 6.61055005 C135.07083223 6.64229979 129.8490674 6.68356435 124.62727457 6.73074543 C122.63415364 6.74678889 120.64099912 6.75909958 118.64783198 6.76765263 C115.86330233 6.77977454 113.07911679 6.80391073 110.29469591 6.83076489 C109.05323809 6.8316486 109.05323809 6.8316486 107.78670031 6.83255017 C103.91789713 6.88211893 102.01752241 6.93815465 98.72413927 9.13374341 C96.34913927 9.39936841 96.34913927 9.39936841 93.72413927 9.38374341 C92.42476427 9.39147778 92.42476427 9.39147778 91.09913927 9.39936841 C88.72413927 9.13374341 88.72413927 9.13374341 85.72413927 7.13374341 C82.7960402 6.92003577 79.95994221 6.82242924 77.03004748 6.81489575 C75.69802798 6.79982731 75.69802798 6.79982731 74.33909899 6.78445446 C71.40104615 6.7535396 68.46308476 6.73656426 65.52492052 6.71968091 C63.48895768 6.70097594 61.45300264 6.68140304 59.41705614 6.6609956 C54.05608502 6.6095975 48.69508875 6.57001287 43.33400255 6.53285229 C37.86437505 6.49286075 32.39485289 6.44174632 26.92531115 6.39155591 C16.1916611 6.29470571 5.45795168 6.21033004 -5.27586073 6.13374341 C-5.6580484 4.47759683 -5.98981174 2.80917316 -6.27586073 1.13374341 C-4.54334768 -0.59876964 -2.30959912 0.00876706 0 0 Z " fill="#2A3B68" transform="translate(63.27586072683334,126.8662565946579)"/>
<path d="M0 0 C29.04 0 58.08 0 88 0 C88 1.65 88 3.3 88 5 C85.36 5 82.72 5 80 5 C80.33 15.56 80.66 26.12 81 37 C79.68 37 78.36 37 77 37 C77.33 26.44 77.66 15.88 78 5 C74.37 5 70.74 5 67 5 C67 8.96 67 12.92 67 17 C51.82 17 36.64 17 21 17 C21 13.04 21 9.08 21 5 C14.07 5 7.14 5 0 5 C0 3.35 0 1.7 0 0 Z " fill="#182B5C" transform="translate(113,8)"/>
<path d="M0 0 C0.66 0.33 1.32 0.66 2 1 C1.34 2.32 0.68 3.64 0 5 C-0.969375 4.979375 -1.93875 4.95875 -2.9375 4.9375 C-5.87465895 4.64381501 -5.87465895 4.64381501 -7 6 C-7.16666667 9 -7.16666667 9 -7 12 C-5.81575674 13.41577477 -5.81575674 13.41577477 -2.4375 13.0625 C-0.7359375 13.0315625 -0.7359375 13.0315625 1 13 C1.33 13.66 1.66 14.32 2 15 C4.51449939 10.0577081 6.86740246 5.1182341 9 0 C11.29296875 0.03515625 11.29296875 0.03515625 14 1 C15.38332724 3.54160123 16.36887608 5.74107597 17.3125 8.4375 C17.57611328 9.13166016 17.83972656 9.82582031 18.11132812 10.54101562 C20 15.60854302 20 15.60854302 20 18 C18.68 18 17.36 18 16 18 C15.67 16.68 15.34 15.36 15 14 C12.69 14.33 10.38 14.66 8 15 C7.67 15.99 7.34 16.98 7 18 C4.77191841 18.10853983 2.54230068 18.18583307 0.3125 18.25 C-0.92886719 18.29640625 -2.17023438 18.3428125 -3.44921875 18.390625 C-7.5696687 17.93733018 -9.10787892 16.89748679 -12 14 C-13.42662219 11.14675563 -13.31033868 9.16545451 -13 6 C-9.15384391 0.23076587 -6.79861955 -0.24280784 0 0 Z " fill="#393B6A" transform="translate(223,147)"/>
<path d="M0 0 C3.22083055 1.87393777 5.495267 3.21180307 6.546875 6.9375 C6.81363414 10.84996741 6.20773397 12.68839905 4 16 C0.67112371 18.21925086 -1.13936508 18.75890933 -5.0625 18.4765625 C-8.61497432 17.60276841 -10.01078114 15.9838283 -12 13 C-12.69824523 10.16123251 -12.70378755 7.83803758 -12 5 C-8.63394339 0.10391766 -5.83719613 -1.0240695 0 0 Z " fill="#313264" transform="translate(122,147)"/>
<path d="M0 0 C1.65 0 3.3 0 5 0 C5.99 2.64 6.98 5.28 8 8 C9.32 5.36 10.64 2.72 12 0 C13.65 0 15.3 0 17 0 C17.89604368 6.04829486 18.11269443 11.8894576 18 18 C16.68 18 15.36 18 14 18 C13.67 15.03 13.34 12.06 13 9 C12.01 11.97 11.02 14.94 10 18 C9.01 18 8.02 18 7 18 C6.01 15.03 5.02 12.06 4 9 C3.67 11.97 3.34 14.94 3 18 C1.68 18 0.36 18 -1 18 C-1.02717692 15.93757383 -1.0464758 13.87504297 -1.0625 11.8125 C-1.07410156 10.66394531 -1.08570313 9.51539063 -1.09765625 8.33203125 C-1.01192832 5.40699414 -0.67849023 2.83683709 0 0 Z " fill="#2C2E61" transform="translate(273,147)"/>
<path d="M0 0 C9.13157895 0 9.13157895 0 11.5 2 C14.4258517 5.51102204 14.4258517 5.51102204 14.625 9.0625 C13.95315923 13.29509682 13.38463799 14.51129559 10 17 C8 18 8 18 0 18 C0 12.06 0 6.12 0 0 Z " fill="#292A5E" transform="translate(244,147)"/>
<path d="M0 0 C8.11111111 0 8.11111111 0 12 3 C14.34168764 6.51253146 14.49623677 7.86469356 14 12 C11.84909549 15.33761045 10.79587201 16.73470933 7 18 C4.69 18 2.38 18 0 18 C0 12.06 0 6.12 0 0 Z " fill="#2C2E61" transform="translate(26,147)"/>
<path d="M0 0 C5 1 5 1 6.58203125 2.84765625 C7.72135417 4.8984375 8.86067708 6.94921875 10 9 C10.33 6.03 10.66 3.06 11 0 C12.32 0 13.64 0 15 0 C15 5.94 15 11.88 15 18 C10 17 10 17 8.41796875 15.15234375 C7.27864583 13.1015625 6.13932292 11.05078125 5 9 C4.67 11.97 4.34 14.94 4 18 C2.68 18 1.36 18 0 18 C0 12.06 0 6.12 0 0 Z " fill="#292B5F" transform="translate(152,147)"/>
<path d="M0 0 C2.97 0 5.94 0 9 0 C12 3 12 3 12.3125 5.4375 C11.99264998 8.0602702 11.33802108 9.74208944 10 12 C11.98 14.97 11.98 14.97 14 18 C11.75 18.3125 11.75 18.3125 9 18 C6.6875 15.5 6.6875 15.5 5 13 C4.67 14.65 4.34 16.3 4 18 C2.68 18 1.36 18 0 18 C0 12.06 0 6.12 0 0 Z " fill="#292B5F" transform="translate(130,147)"/>
<path d="M0 0 C0.99 0.66 1.98 1.32 3 2 C2.67 2.99 2.34 3.98 2 5 C-0.64 5 -3.28 5 -6 5 C-6 7.64 -6 10.28 -6 13 C-4.02 13 -2.04 13 0 13 C0.33 12.34 0.66 11.68 1 11 C-0.32 11 -1.64 11 -3 11 C-3 10.01 -3 9.02 -3 8 C-0.36 8 2.28 8 5 8 C4.51834131 14.38197767 4.51834131 14.38197767 2.375 16.9375 C-1.02619871 18.4590889 -3.31282731 18.51749792 -7 18 C-9.91963173 16.01216563 -11.61102978 14.5685303 -12.48046875 11.0625 C-12.75815509 7.09984094 -12.23092162 5.33588599 -9.9375 2 C-6.29704773 -0.4786058 -4.32351988 -0.56045628 0 0 Z " fill="#2D2F62" transform="translate(181,147)"/>
<path d="M0 0 C1.32 0 2.64 0 4 0 C4 4.62 4 9.24 4 14 C5.65 14 7.3 14 9 14 C9 9.38 9 4.76 9 0 C10.65 0 12.3 0 14 0 C14.10823773 2.24893954 14.18569645 4.49937575 14.25 6.75 C14.29640625 8.00296875 14.3428125 9.2559375 14.390625 10.546875 C14 14 14 14 12.20703125 16.4296875 C9.05061716 18.67549009 6.78015341 18.41238037 3 18 C2.01 17.34 1.02 16.68 0 16 C-0.22107787 13.2114711 -0.28107535 10.65346819 -0.1875 7.875 C-0.17396484 7.12089844 -0.16042969 6.36679688 -0.14648438 5.58984375 C-0.11109985 3.72625873 -0.05729167 1.86304022 0 0 Z " fill="#393B6B" transform="translate(82,147)"/>
<path d="M0 0 C2.29296875 0.03515625 2.29296875 0.03515625 5 1 C6.38332724 3.54160123 7.36887608 5.74107597 8.3125 8.4375 C8.57611328 9.13166016 8.83972656 9.82582031 9.11132812 10.54101562 C11 15.60854302 11 15.60854302 11 18 C8.5625 17.625 8.5625 17.625 6 17 C5.67 16.34 5.34 15.68 5 15 C2.67843403 14.59270772 0.3431213 14.25561323 -2 14 C-2.33 15.32 -2.66 16.64 -3 18 C-4.32 18 -5.64 18 -7 18 C-5.06375702 11.79522136 -2.74390859 5.89174281 0 0 Z " fill="#393B6B" transform="translate(199,147)"/>
<path d="M0 0 C3.3 0 6.6 0 10 0 C10 1.32 10 2.64 10 4 C8.02 4 6.04 4 4 4 C4 4.99 4 5.98 4 7 C5.98 7 7.96 7 10 7 C10 8.32 10 9.64 10 11 C8.02 11 6.04 11 4 11 C4 11.99 4 12.98 4 14 C5.98 14 7.96 14 10 14 C10 15.32 10 16.64 10 18 C6.7 18 3.4 18 0 18 C0 12.06 0 6.12 0 0 Z " fill="#2D2F62" transform="translate(260,147)"/>
<path d="M0 0 C3.5 0.1875 3.5 0.1875 5.5 1.1875 C5.17 2.1775 4.84 3.1675 4.5 4.1875 C2.52 4.1875 0.54 4.1875 -1.5 4.1875 C0.16294534 5.9335926 1.60583218 7.25099931 3.6875 8.5 C5.5 10.1875 5.5 10.1875 5.875 13.25 C5.5 16.1875 5.5 16.1875 3.5 18.1875 C1.40625 18.48828125 1.40625 18.48828125 -1 18.5 C-1.7940625 18.51675781 -2.588125 18.53351563 -3.40625 18.55078125 C-4.0971875 18.43089844 -4.788125 18.31101563 -5.5 18.1875 C-6.16 17.1975 -6.82 16.2075 -7.5 15.1875 C-7.17 14.5275 -6.84 13.8675 -6.5 13.1875 C-3.86 13.5175 -1.22 13.8475 1.5 14.1875 C-0.16294534 12.4414074 -1.60583218 11.12400069 -3.6875 9.875 C-5.5 8.1875 -5.5 8.1875 -5.875 5.125 C-5.31347201 0.72636409 -4.40189481 0.23581579 0 0 Z " fill="#323466" transform="translate(48.5,146.8125)"/>
<path d="M0 0 C0.66 0.33 1.32 0.66 2 1 C1.34 2.32 0.68 3.64 0 5 C-0.969375 4.979375 -1.93875 4.95875 -2.9375 4.9375 C-5.87465895 4.64381501 -5.87465895 4.64381501 -7 6 C-7.16666667 9 -7.16666667 9 -7 12 C-5.81575674 13.41577477 -5.81575674 13.41577477 -2.4375 13.0625 C-0.7359375 13.0315625 -0.7359375 13.0315625 1 13 C1.5625 14.9375 1.5625 14.9375 2 17 C1 18 1 18 -2.75 18.3125 C-6.09139976 18.28250539 -6.97721051 18.01454648 -9.9375 16.125 C-12.38016629 13.60831351 -12.92589802 12.66691781 -13.3125 9.1875 C-12.92835642 5.2692355 -11.70743683 3.78706733 -9 1 C-6.01405576 -0.49297212 -3.29146376 -0.11755228 0 0 Z " fill="#2D2F62" transform="translate(223,147)"/>
<path d="M0 0 C0 0.99 0 1.98 0 3 C-5.33547526 3.84734424 -10.60246554 4.27339464 -15.99609375 4.53515625 C-17.24641136 4.59962196 -17.24641136 4.59962196 -18.52198792 4.66539001 C-21.16035009 4.80074183 -23.7989091 4.93169065 -26.4375 5.0625 C-28.23634299 5.15400502 -30.03517132 5.24579899 -31.83398438 5.33789062 C-36.22249362 5.56193561 -40.61118477 5.78203455 -45 6 C-45 5.01 -45 4.02 -45 3 C-40.52068553 2.56547414 -36.04072212 2.13859199 -31.56005859 1.71826172 C-30.04131248 1.57476573 -28.52274957 1.42931486 -27.00439453 1.28173828 C-17.97614097 0.40572952 -9.0842468 -0.2373243 0 0 Z " fill="#253765" transform="translate(255,115)"/>
<path d="M0 0 C10.48378128 -0.28377152 20.81826331 0.6024088 31.25 1.5 C32.97782652 1.64498563 34.70569094 1.78952018 36.43359375 1.93359375 C40.62285055 2.28386983 44.81154877 2.64022441 49 3 C49 3.66 49 4.32 49 5 C32.56717212 5.29908079 16.37100382 4.4114876 0 3 C0 2.01 0 1.02 0 0 Z " fill="#283967" transform="translate(59,115)"/>
<path d="M0 0 C-1 3 -1 3 -4.52734375 4.82421875 C-5.99266374 5.45639586 -7.46299521 6.07705247 -8.9375 6.6875 C-9.67935547 7.00783203 -10.42121094 7.32816406 -11.18554688 7.65820312 C-16.69301373 10 -16.69301373 10 -19 10 C-19 10.66 -19 11.32 -19 12 C-21.45475514 13.03028044 -23.91314351 14.04945504 -26.375 15.0625 C-27.07367188 15.35705078 -27.77234375 15.65160156 -28.4921875 15.95507812 C-30.30504908 16.69591098 -32.15123143 17.35396964 -34 18 C-34.66 17.67 -35.32 17.34 -36 17 C-36 16.01 -36 15.02 -36 14 C-31.35815514 11.99928999 -26.71335862 10.00566081 -22.06567383 8.01855469 C-20.48476198 7.34146155 -18.90467665 6.66243524 -17.32543945 5.98144531 C-15.05634242 5.00337395 -12.78437135 4.03227574 -10.51171875 3.0625 C-9.80536789 2.75626709 -9.09901703 2.45003418 -8.3712616 2.13452148 C-5.41569453 0.88021436 -3.24564696 0 0 0 Z " fill="#2D3E6A" transform="translate(235,89)"/>
<path d="M0 0 C2.32421875 -0.15625 2.32421875 -0.15625 5 0 C7.8125 2.5 7.8125 2.5 10 5 C10.66 3.35 11.32 1.7 12 0 C13.65 0 15.3 0 17 0 C15.93580316 2.21025497 14.86760706 4.18535011 13.4375 6.1875 C11.47047313 10.03603083 11.26970635 13.73119952 11 18 C9.68 18 8.36 18 7 18 C6.938125 16.0509375 6.938125 16.0509375 6.875 14.0625 C6.28205983 8.31554145 3.46316151 4.47986947 0 0 Z " fill="#2E3063" transform="translate(291,147)"/>
<path d="M0 0 C4.29 0 8.58 0 13 0 C13 1.32 13 2.64 13 4 C11.35 4 9.7 4 8 4 C8 8.62 8 13.24 8 18 C6.68 18 5.36 18 4 18 C4 13.38 4 8.76 4 4 C2.68 4 1.36 4 0 4 C0 2.68 0 1.36 0 0 Z " fill="#313365" transform="translate(97,147)"/>
<path d="M0 0 C3.96 0 7.92 0 12 0 C12 1.32 12 2.64 12 4 C10.68 4 9.36 4 8 4 C8 8.62 8 13.24 8 18 C6.68 18 5.36 18 4 18 C4 13.38 4 8.76 4 4 C2.68 4 1.36 4 0 4 C0 2.68 0 1.36 0 0 Z " fill="#2D2F62" transform="translate(68,147)"/>
<path d="M0 0 C11.55 1.65 23.1 3.3 35 5 C35 5.99 35 6.98 35 8 C22.90675895 6.78495805 10.96741956 5.1218829 -1 3 C-0.67 2.01 -0.34 1.02 0 0 Z " fill="#2A3C69" transform="translate(62,108)"/>
<path d="M0 0 C19.9731859 3.67410067 19.9731859 3.67410067 28.25 5.5625 C29.16265625 5.77003906 30.0753125 5.97757812 31.015625 6.19140625 C31.67046875 6.45824219 32.3253125 6.72507812 33 7 C33.495 8.485 33.495 8.485 34 10 C22.59809108 7.94952047 11.29462018 5.57527798 0 3 C0 2.01 0 1.02 0 0 Z " fill="#293A68" transform="translate(65,102)"/>
<path d="M0 0 C-2.44997898 2.9498603 -4.50802777 3.61257866 -8.21875 4.38671875 C-9.23324219 4.60263672 -10.24773437 4.81855469 -11.29296875 5.04101562 C-12.35128906 5.25435547 -13.40960938 5.46769531 -14.5 5.6875 C-15.55832031 5.91244141 -16.61664063 6.13738281 -17.70703125 6.36914062 C-25.50937975 8 -25.50937975 8 -29 8 C-29 7.34 -29 6.68 -29 6 C-29.66 5.67 -30.32 5.34 -31 5 C-26.5866445 3.96447654 -22.1688874 2.94913361 -17.75 1.9375 C-16.49574219 1.64294922 -15.24148437 1.34839844 -13.94921875 1.04492188 C-12.74394531 0.77099609 -11.53867188 0.49707031 -10.296875 0.21484375 C-9.18666992 -0.04176025 -8.07646484 -0.29836426 -6.93261719 -0.56274414 C-4.16766182 -0.97500147 -2.59643546 -0.93084973 0 0 Z " fill="#384973" transform="translate(250,103)"/>
<path d="M0 0 C0 0.66 0 1.32 0 2 C-14.85 7.445 -14.85 7.445 -30 13 C-30 12.01 -30 11.02 -30 10 C-6.76595745 0 -6.76595745 0 0 0 Z " fill="#263866" transform="translate(240,93)"/>
<path d="M0 0 C6.39296661 1.99332068 12.47046394 4.41474614 18.5625 7.1875 C19.38041016 7.55552734 20.19832031 7.92355469 21.04101562 8.30273438 C23.02909218 9.19795013 25.01480308 10.0984165 27 11 C27 11.66 27 12.32 27 13 C20.88106577 12.43343202 15.67636193 9.89348871 10.125 7.4375 C9.15046875 7.01275391 8.1759375 6.58800781 7.171875 6.15039062 C4.77855235 5.10624496 2.38811986 4.05597786 0 3 C0 2.01 0 1.02 0 0 Z " fill="#273966" transform="translate(80,89)"/>
<path d="M0 0 C3 0.125 3 0.125 4 1.125 C4.1328125 2.9375 4.1328125 2.9375 4.125 5.125 C4.12757812 5.846875 4.13015625 6.56875 4.1328125 7.3125 C4 9.125 4 9.125 3 10.125 C0 10.25 0 10.25 -3 10.125 C-4 9.125 -4 9.125 -4.1328125 7.3125 C-4.13023438 6.590625 -4.12765625 5.86875 -4.125 5.125 C-4.12757812 4.403125 -4.13015625 3.68125 -4.1328125 2.9375 C-3.90343964 -0.1927649 -3.18691942 0.13278831 0 0 Z " fill="#F4F4F7" transform="translate(119,150.875)"/>
<path d="M0 0 C1.32 0 2.64 0 4 0 C4 5.94 4 11.88 4 18 C2.68 18 1.36 18 0 18 C0 12.06 0 6.12 0 0 Z " fill="#323365" transform="translate(145,147)"/>
<path d="M0 0 C1.32 0 2.64 0 4 0 C4 5.94 4 11.88 4 18 C2.68 18 1.36 18 0 18 C0 12.06 0 6.12 0 0 Z " fill="#323365" transform="translate(56,147)"/>
<path d="M0 0 C-2.40424743 3.60637115 -3.37814746 3.67336001 -7.453125 4.75390625 C-8.54753906 5.05103516 -9.64195312 5.34816406 -10.76953125 5.65429688 C-11.91808594 5.95400391 -13.06664062 6.25371094 -14.25 6.5625 C-16.50552302 7.16679542 -18.76074149 7.77222892 -21.015625 8.37890625 C-22.01883789 8.6426001 -23.02205078 8.90629395 -24.05566406 9.17797852 C-27.05772781 9.97154795 -27.05772781 9.97154795 -30.12402344 11.16381836 C-33.01573931 12.00457616 -34.24209686 12.06073198 -37 11 C-32.2169481 9.26101926 -27.42979772 7.53404483 -22.63842773 5.81811523 C-21.00865984 5.23254169 -19.3800663 4.64368902 -17.75268555 4.05151367 C-15.41495012 3.20149284 -13.07326205 2.36330668 -10.73046875 1.52734375 C-10.00224411 1.25969711 -9.27401947 0.99205048 -8.52372742 0.71629333 C-3.34161512 -1.11387171 -3.34161512 -1.11387171 0 0 Z " fill="#C9CED9" transform="translate(238,97)"/>
<path d="M0 0 C2.45391569 3.68087353 2.22802759 6.44355588 2.125 10.6875 C2.11597656 11.38939453 2.10695313 12.09128906 2.09765625 12.81445312 C2.07413704 14.54311525 2.03826713 16.27160145 2 18 C1.34 18 0.68 18 0 18 C0 16.68 0 15.36 0 14 C-1.98 14 -3.96 14 -6 14 C-6 13.01 -6 12.02 -6 11 C-4.02 11 -2.04 11 0 11 C0 9.68 0 8.36 0 7 C-1.98 7 -3.96 7 -6 7 C-6 6.01 -6 5.02 -6 4 C-4.02 4 -2.04 4 0 4 C0 2.68 0 1.36 0 0 Z " fill="#F3F3F6" transform="translate(270,147)"/>
<path d="M0 0 C-0.33 0.99 -0.66 1.98 -1 3 C-2.91772461 3.89135742 -2.91772461 3.89135742 -5.40234375 4.60546875 C-6.29244141 4.86650391 -7.18253906 5.12753906 -8.09960938 5.39648438 C-9.03611328 5.65751953 -9.97261719 5.91855469 -10.9375 6.1875 C-11.87013672 6.46013672 -12.80277344 6.73277344 -13.76367188 7.01367188 C-20.64861372 9 -20.64861372 9 -23 9 C-22.67 7.68 -22.34 6.36 -22 5 C-21.02417969 4.72285156 -20.04835937 4.44570312 -19.04296875 4.16015625 C-17.75780249 3.794306 -16.47264679 3.42841864 -15.1875 3.0625 C-13.92292969 2.70285156 -12.65835938 2.34320313 -11.35546875 1.97265625 C-4.16213264 -0.11249007 -4.16213264 -0.11249007 0 0 Z " fill="#2F406C" transform="translate(246,97)"/>
<path d="M0 0 C11.10487036 2.67533216 22.0653814 5.69796171 33 9 C29.03249116 10.50747858 25.86890014 9.51035782 21.828125 8.56640625 C21.1457074 8.40961899 20.46328979 8.25283173 19.76019287 8.09129333 C17.58805588 7.59018527 15.41910904 7.07653991 13.25 6.5625 C11.77493255 6.21987132 10.29967385 5.87806488 8.82421875 5.53710938 C5.21388049 4.70092446 1.60629546 3.85347305 -2 3 C-1.34 2.67 -0.68 2.34 0 2 C0 1.34 0 0.68 0 0 Z " fill="#B7BDCC" transform="translate(82,103)"/>
<path d="M0 0 C0 0.99 0 1.98 0 3 C-5.70690634 3.99250545 -11.21408489 4.10477512 -17 4 C-17 3.34 -17 2.68 -17 2 C-18.98 2 -20.96 2 -23 2 C-23 1.67 -23 1.34 -23 1 C-15.307359 0.15199233 -7.73708326 -0.12152487 0 0 Z " fill="#44537B" transform="translate(255,115)"/>
<path d="M0 0 C7.09727428 -0.10808032 13.96094956 0.06145994 21 1 C21 1.99 21 2.98 21 4 C14.07 3.67 7.14 3.34 0 3 C0 2.01 0 1.02 0 0 Z " fill="#3C4C75" transform="translate(59,115)"/>
<path d="M0 0 C-2.57764479 3.21237508 -5.11054945 3.76399516 -9.05859375 4.640625 C-10.84426758 5.03894531 -10.84426758 5.03894531 -12.66601562 5.4453125 C-14.53290039 5.84363281 -14.53290039 5.84363281 -16.4375 6.25 C-17.67822266 6.53101562 -18.91894531 6.81203125 -20.19726562 7.1015625 C-30.29470438 9.30781737 -30.29470438 9.30781737 -34 8 C-30.14592746 6.87467738 -26.29172512 5.74979992 -22.4375 4.625 C-21.35146484 4.30789062 -20.26542969 3.99078125 -19.14648438 3.6640625 C-17.03704243 3.04854144 -14.92687372 2.43550452 -12.81591797 1.82519531 C-11.12776879 1.33048886 -9.44304613 0.8234791 -7.76611328 0.29199219 C-4.55626962 -0.71293124 -3.29178757 -1.09726252 0 0 Z " fill="#D2D5DF" transform="translate(237,103)"/>
<path d="M0 0 C0 0.66 0 1.32 0 2 C-10.395 3.485 -10.395 3.485 -21 5 C-21 4.34 -21 3.68 -21 3 C-21.99 2.67 -22.98 2.34 -24 2 C-15.92437827 0.56205146 -8.2056037 -0.29599372 0 0 Z " fill="#2F416C" transform="translate(253,109)"/>
<path d="M0 0 C-2.57833439 2.57833439 -5.10325781 3.3761471 -8.5 4.6875 C-9.6653125 5.14511719 -10.830625 5.60273437 -12.03125 6.07421875 C-15 7 -15 7 -17 6 C-17 5.01 -17 4.02 -17 3 C-15.11414655 2.10369326 -13.21578923 1.23366125 -11.3125 0.375 C-10.25675781 -0.11226563 -9.20101562 -0.59953125 -8.11328125 -1.1015625 C-4.52064907 -2.13833214 -3.2217055 -1.75729391 0 0 Z " fill="#33446F" transform="translate(216,100)"/>
<path d="M0 0 C2.83541358 0.78601676 5.62085573 1.64867065 8.40942383 2.58813477 C9.47612305 2.94584961 10.54282227 3.30356445 11.6418457 3.67211914 C12.74463867 4.04530273 13.84743164 4.41848633 14.98364258 4.80297852 C16.10577148 5.1800293 17.22790039 5.55708008 18.3840332 5.94555664 C21.14732609 6.8744934 23.90964436 7.80622294 26.67114258 8.74047852 C23.46043197 9.79776836 21.623567 9.67739497 18.44067383 8.59594727 C17.63694336 8.33104492 16.83321289 8.06614258 16.00512695 7.79321289 C15.17303711 7.50768555 14.34094727 7.2221582 13.48364258 6.92797852 C7.25013009 4.82707224 1.11847714 3.06882383 -5.32885742 1.74047852 C-2.32885742 -0.25952148 -2.32885742 -0.25952148 0 0 Z " fill="#CFD3DD" transform="translate(83.328857421875,98.259521484375)"/>
<path d="M0 0 C2.475 0.495 2.475 0.495 5 1 C5.625 3.8125 5.625 3.8125 6 7 C5.01 8.485 5.01 8.485 4 10 C2.68 10 1.36 10 0 10 C0 6.7 0 3.4 0 0 Z " fill="#EEEEF2" transform="translate(248,151)"/>
<path d="M0 0 C-2.33081978 2.33081978 -3.21191817 2.3906879 -6.39453125 2.8515625 C-7.26787109 2.98046875 -8.14121094 3.109375 -9.04101562 3.2421875 C-9.95560547 3.36851563 -10.87019531 3.49484375 -11.8125 3.625 C-12.71548828 3.7590625 -13.61847656 3.893125 -14.54882812 4.03125 C-18.74607507 4.6357029 -22.75186061 5.0707002 -27 5 C-22.66624022 2.66072678 -18.28691819 1.81248216 -13.5 0.8125 C-12.64535156 0.62236328 -11.79070312 0.43222656 -10.91015625 0.23632812 C-10.08386719 0.06166016 -9.25757813 -0.11300781 -8.40625 -0.29296875 C-7.28186523 -0.53309692 -7.28186523 -0.53309692 -6.13476562 -0.77807617 C-3.8274336 -1.01793948 -2.19852176 -0.69372947 0 0 Z " fill="#CDD1DC" transform="translate(231,110)"/>
<path d="M0 0 C4.19283118 0.64844086 8.26499921 1.51216646 12.375 2.5625 C13.43460938 2.83191406 14.49421875 3.10132812 15.5859375 3.37890625 C16.38257812 3.58386719 17.17921875 3.78882812 18 4 C17.01 4.495 17.01 4.495 16 5 C15.67 5.66 15.34 6.32 15 7 C12.68265393 6.41094558 10.37232242 5.80479948 8.0625 5.1875 C7.40314453 5.02185547 6.74378906 4.85621094 6.06445312 4.68554688 C4.16015625 4.16796875 4.16015625 4.16796875 1 3 C0.67 2.01 0.34 1.02 0 0 Z " fill="#2F406C" transform="translate(69,97)"/>
<path d="M0 0 C4 1 4 1 5 2 C5.1875 4.9375 5.1875 4.9375 5 8 C4.34 8.66 3.68 9.32 3 10 C2.01 10 1.02 10 0 10 C0 6.7 0 3.4 0 0 Z " fill="#FDFDFD" transform="translate(30,151)"/>
<path d="M0 0 C7.91909556 2.45765035 15.41985296 5.66818573 23 9 C19.36383407 10.21205531 18.41130247 9.66898648 14.89453125 8.34765625 C13.91162109 7.98349609 12.92871094 7.61933594 11.91601562 7.24414062 C10.89185547 6.85419922 9.86769531 6.46425781 8.8125 6.0625 C7.77673828 5.67642578 6.74097656 5.29035156 5.67382812 4.89257812 C3.11268546 3.93657556 0.55506401 2.97210743 -2 2 C-1.34 1.34 -0.68 0.68 0 0 Z " fill="#D5D8E1" transform="translate(80,92)"/>
<path d="M0 0 C4.95 0.99 9.9 1.98 15 3 C15 3.99 15 4.98 15 6 C13.06201479 5.69052329 11.12462574 5.37731166 9.1875 5.0625 C8.10855469 4.88847656 7.02960938 4.71445313 5.91796875 4.53515625 C3 4 3 4 0 3 C0 2.01 0 1.02 0 0 Z " fill="#354570" transform="translate(65,102)"/>
<path d="M0 0 C0.66 0.33 1.32 0.66 2 1 C2.625 3.0625 2.625 3.0625 3 5 C1.68 4.67 0.36 4.34 -1 4 C-1 4.66 -1 5.32 -1 6 C-0.34 6.33 0.32 6.66 1 7 C0.01 7 -0.98 7 -2 7 C-2 6.34 -2 5.68 -2 5 C-2.66 5 -3.32 5 -4 5 C-4 4.01 -4 3.02 -4 2 C-5.65 1.67 -7.3 1.34 -9 1 C-5.64406166 -1.11299821 -3.77811119 -1.09366377 0 0 Z " fill="#3F4F77" transform="translate(112,102)"/>
<path d="M0 0 C1.41791408 0.45445964 2.83428046 0.91374944 4.25 1.375 C5.43335937 1.75785156 5.43335937 1.75785156 6.640625 2.1484375 C8.86627958 2.95173667 10.90931672 3.89711662 13 5 C12.67 5.99 12.34 6.98 12 8 C8.04 6.35 4.08 4.7 0 3 C0 2.01 0 1.02 0 0 Z " fill="#2E3F6B" transform="translate(80,89)"/>
<path d="M0 0 C-1 2 -1 2 -4.16015625 3.0703125 C-5.45873661 3.42991937 -6.75966085 3.78114216 -8.0625 4.125 C-8.72572266 4.30675781 -9.38894531 4.48851563 -10.07226562 4.67578125 C-11.71291479 5.12430404 -13.35622449 5.56307386 -15 6 C-14.34375 4.11328125 -14.34375 4.11328125 -13 2 C-10.46875 0.91796875 -10.46875 0.91796875 -7.5 0.1875 C-6.5203125 -0.06644531 -5.540625 -0.32039063 -4.53125 -0.58203125 C-2 -1 -2 -1 0 0 Z " fill="#233564" transform="translate(224,104)"/>
<path d="M0 0 C5.13503344 0.64187918 9.9943454 1.68272247 15 3 C14.01 4.485 14.01 4.485 13 6 C11.01739401 5.57835981 9.03892755 5.13721222 7.0625 4.6875 C5.96035156 4.44386719 4.85820313 4.20023437 3.72265625 3.94921875 C2.82417969 3.63597656 1.92570312 3.32273437 1 3 C0.67 2.01 0.34 1.02 0 0 Z " fill="#273866" transform="translate(85,102)"/>
<path d="M0 0 C4.83628305 0.99043705 9.47618873 1.95698846 14 4 C13.67 4.99 13.34 5.98 13 7 C11.01638562 6.41060025 9.03816459 5.80302211 7.0625 5.1875 C5.40927734 4.68283203 5.40927734 4.68283203 3.72265625 4.16796875 C2.82417969 3.78253906 1.92570312 3.39710937 1 3 C0.67 2.01 0.34 1.02 0 0 Z " fill="#243664" transform="translate(94,100)"/>
<path d="M0 0 C4.62 0.99 9.24 1.98 14 3 C14 3.33 14 3.66 14 4 C7.56688704 4.09507063 1.34241995 4.15316726 -5 3 C-5 2.67 -5 2.34 -5 2 C-3.35 1.67 -1.7 1.34 0 1 C0 0.67 0 0.34 0 0 Z " fill="#D1D5DF" transform="translate(81,108)"/>
<path d="M0 0 C0.66 0.33 1.32 0.66 2 1 C0.44000409 4.11999182 -2.12779497 4.45116846 -5.3125 5.6875 C-6.46363281 6.14511719 -7.61476562 6.60273437 -8.80078125 7.07421875 C-12.02265934 8.0065571 -12.95240526 7.94449396 -16 7 C-13.3789879 5.80293183 -10.75385304 4.61711354 -8.125 3.4375 C-7.00544922 2.92413086 -7.00544922 2.92413086 -5.86328125 2.40039062 C-3.93450668 1.54026143 -1.9688967 0.76383202 0 0 Z " fill="#D8DBE3" transform="translate(232,92)"/>
<path d="M0 0 C0 0.66 0 1.32 0 2 C-4.95 2 -9.9 2 -15 2 C-10.1057895 -0.44710525 -5.33886428 -1.92199114 0 0 Z " fill="#E8EAEF" transform="translate(232,115)"/>
<path d="M0 0 C0 0.66 0 1.32 0 2 C-1.41377782 2.36552803 -2.83120576 2.71695495 -4.25 3.0625 C-5.03890625 3.25972656 -5.8278125 3.45695312 -6.640625 3.66015625 C-9.10394822 4.01497267 -10.65604132 3.76877544 -13 3 C-8.72352613 0.14901742 -5.0682068 -0.14480591 0 0 Z " fill="#1D2F5F" transform="translate(221,109)"/>
<path d="M0 0 C2.1640625 0.2421875 2.1640625 0.2421875 4.625 0.875 C5.44226563 1.07867187 6.25953125 1.28234375 7.1015625 1.4921875 C8.04128906 1.74355469 8.04128906 1.74355469 9 2 C8.67 2.99 8.34 3.98 8 5 C4.7 4.01 1.4 3.02 -2 2 C-1.34 1.34 -0.68 0.68 0 0 Z " fill="#374872" transform="translate(86,97)"/>
<path d="M0 0 C0 0.66 0 1.32 0 2 C-2.97 2.66 -5.94 3.32 -9 4 C-9 3.34 -9 2.68 -9 2 C-9.66 1.67 -10.32 1.34 -11 1 C-7.27569643 0.30710631 -3.78916254 -0.11144596 0 0 Z " fill="#30416D" transform="translate(230,107)"/>
<path d="M0 0 C2.97 0.33 5.94 0.66 9 1 C8.01 1.495 8.01 1.495 7 2 C7 2.66 7 3.32 7 4 C4.36 3.67 1.72 3.34 -1 3 C-0.67 2.01 -0.34 1.02 0 0 Z " fill="#374872" transform="translate(62,108)"/>
<path d="M0 0 C-0.33 0.99 -0.66 1.98 -1 3 C-2.98 3.33 -4.96 3.66 -7 4 C-7.33 3.01 -7.66 2.02 -8 1 C-5.07175348 0.02391783 -3.04386724 -0.08226668 0 0 Z " fill="#44537B" transform="translate(246,97)"/>
<path d="M0 0 C3.63 0 7.26 0 11 0 C11 0.66 11 1.32 11 2 C8.69 2.33 6.38 2.66 4 3 C4 2.34 4 1.68 4 1 C2.68 0.67 1.36 0.34 0 0 Z " fill="#3F4F78" transform="translate(242,109)"/>
<path d="M0 0 C2.475 0.99 2.475 0.99 5 2 C2.73814546 4.26185454 1.03016439 5.03921617 -2 6 C-2.99 5.67 -3.98 5.34 -5 5 C-3.68 4.67 -2.36 4.34 -1 4 C-0.67 2.68 -0.34 1.36 0 0 Z " fill="#7C87A3" transform="translate(211,98)"/>
<path d="M0 0 C2.97 0.495 2.97 0.495 6 1 C6 1.99 6 2.98 6 4 C4.35 3.67 2.7 3.34 1 3 C0.67 2.01 0.34 1.02 0 0 Z " fill="#394973" transform="translate(69,97)"/>
<path d="M0 0 C1.32 0.33 2.64 0.66 4 1 C3.67 2.32 3.34 3.64 3 5 C2.01 5 1.02 5 0 5 C0 3.35 0 1.7 0 0 Z " fill="#DDDDE5" transform="translate(134,150)"/>
</svg>
